<svg xmlns="http://www.w3.org/2000/svg" xmlns:xlink="http://www.w3.org/1999/xlink" preserveAspectRatio="xMidYMid meet" version="1.0" viewBox="0.0 0.0 483.4 352.4" zoomAndPan="magnify" style="fill: rgb(0, 0, 0);" role="img" aria-label="One Day at a Time Typography"><defs><clipPath id="__id42_snuowqm6t9"><path d="M 0 0 L 483.441406 0 L 483.441406 345 L 0 345 Z M 0 0"></path></clipPath><clipPath id="__id43_snuowqm6t9"><path d="M 5 0 L 467 0 L 467 352.371094 L 5 352.371094 Z M 5 0"></path></clipPath></defs><g><g clip-path="url(#__id42_snuowqm6t9)" id="__id44_snuowqm6t9"><path d="M 474.632812 141.800781 C 475.726562 138.023438 476.671875 134.207031 477.566406 130.382812 C 478.425781 126.546875 479.230469 122.699219 479.890625 118.820312 C 480.558594 114.949219 481.128906 111.054688 481.472656 107.125 C 480.3125 110.894531 479.316406 114.695312 478.363281 118.5 C 477.394531 122.300781 476.511719 126.117188 475.621094 129.9375 C 474.765625 133.761719 473.902344 137.585938 473.125 141.429688 C 472.332031 145.269531 471.578125 149.125 470.980469 153.023438 C 472.378906 149.335938 473.554688 145.578125 474.632812 141.800781 Z M 264.890625 337.175781 C 266.621094 334.707031 267.949219 331.957031 268.910156 329.09375 C 269.832031 326.214844 270.390625 323.214844 270.453125 320.199219 C 270.535156 317.191406 270.160156 314.167969 269.21875 311.34375 C 269.339844 314.3125 269.257812 317.21875 268.898438 320.082031 C 268.523438 322.941406 267.917969 325.753906 267.011719 328.46875 C 266.136719 331.199219 264.960938 333.828125 263.570312 336.351562 C 262.167969 338.875 260.515625 341.265625 258.65625 343.582031 C 261.085938 341.863281 263.175781 339.648438 264.890625 337.175781 Z M 235.578125 343.675781 C 237.726562 343.0625 239.828125 342.269531 241.851562 341.300781 C 243.886719 340.339844 245.796875 339.140625 247.644531 337.855469 C 249.480469 336.550781 251.167969 335.042969 252.773438 333.460938 C 255.925781 330.234375 258.515625 326.4375 260.359375 322.363281 C 262.234375 318.300781 263.527344 314.039062 264.507812 309.726562 C 262.734375 313.78125 261.046875 317.847656 258.964844 321.660156 C 256.890625 325.480469 254.378906 329 251.347656 332.058594 C 248.351562 335.148438 244.878906 337.761719 241.132812 339.921875 C 239.238281 340.972656 237.292969 341.9375 235.265625 342.75 C 233.242188 343.558594 231.152344 344.21875 229.015625 344.808594 C 231.226562 344.652344 233.417969 344.242188 235.578125 343.675781 Z M 62.386719 322.695312 C 69.21875 322.570312 76.042969 321.941406 82.765625 320.726562 C 89.488281 319.542969 96.097656 317.757812 102.476562 315.402344 C 95.871094 317.015625 89.214844 318.269531 82.523438 319.1875 C 75.828125 320.070312 69.09375 320.605469 62.351562 320.699219 C 48.859375 320.945312 35.382812 319.496094 22.078125 316.710938 C 34.988281 321.023438 48.726562 322.890625 62.386719 322.695312 Z M 4.894531 302.019531 C 5.828125 303.582031 7.121094 304.972656 8.609375 306.058594 C 10.09375 307.152344 11.753906 307.945312 13.410156 308.644531 C 16.730469 310 20.117188 311.058594 23.542969 312.050781 C 26.972656 313.019531 30.464844 313.75 33.96875 314.402344 C 41 315.554688 48.140625 316.125 55.253906 315.851562 C 62.367188 315.664062 69.441406 314.617188 76.304688 312.894531 C 69.289062 313.855469 62.257812 314.363281 55.234375 314.292969 C 51.726562 314.261719 48.21875 314.101562 44.726562 313.777344 C 41.234375 313.5 37.761719 313 34.304688 312.429688 C 27.410156 311.238281 20.578125 309.496094 13.976562 307.195312 C 12.347656 306.601562 10.773438 305.902344 9.351562 304.984375 C 7.925781 304.070312 6.691406 302.890625 5.710938 301.484375 C 3.683594 298.6875 2.667969 295.230469 1.585938 291.878906 C 2.238281 295.339844 3.035156 298.859375 4.894531 302.019531 Z M 100.898438 31.679688 C 105.007812 33.457031 108.929688 35.636719 112.558594 38.238281 C 116.203125 40.808594 119.554688 43.796875 122.589844 47.089844 C 125.613281 50.394531 128.289062 54.035156 130.632812 57.945312 C 129.039062 53.667969 126.660156 49.664062 123.773438 46.074219 C 120.894531 42.46875 117.472656 39.300781 113.714844 36.609375 C 109.933594 33.949219 105.816406 31.761719 101.464844 30.230469 C 97.125 28.6875 92.5625 27.761719 87.996094 27.660156 C 92.460938 28.585938 96.78125 29.910156 100.898438 31.679688 Z M 27.535156 46.566406 C 31.84375 42.265625 36.492188 38.324219 41.53125 34.933594 C 46.628906 31.648438 51.929688 28.660156 57.5625 26.410156 C 58.246094 26.089844 58.964844 25.84375 59.679688 25.589844 L 63.953125 24.050781 C 64.667969 23.808594 65.40625 23.632812 66.132812 23.417969 C 67.589844 23.019531 69.039062 22.574219 70.507812 22.214844 L 74.953125 21.308594 C 76.425781 20.945312 77.941406 20.847656 79.4375 20.617188 C 80.9375 20.417969 82.433594 20.183594 83.945312 20.144531 L 88.476562 19.894531 L 93.011719 19.984375 C 94.527344 19.953125 96.027344 20.164062 97.535156 20.296875 C 99.039062 20.460938 100.554688 20.535156 102.039062 20.816406 C 105.027344 21.28125 107.988281 21.929688 110.890625 22.789062 C 113.796875 23.632812 116.648438 24.667969 119.398438 25.933594 C 122.148438 27.195312 124.835938 28.621094 127.328125 30.347656 C 129.832031 32.050781 132.230469 33.9375 134.355469 36.121094 C 136.464844 38.308594 138.367188 40.707031 140.007812 43.300781 C 138.554688 40.601562 136.785156 38.066406 134.742188 35.757812 C 132.699219 33.445312 130.359375 31.40625 127.894531 29.546875 C 122.902344 25.890625 117.25 23.152344 111.347656 21.296875 C 99.519531 17.515625 86.757812 17.171875 74.59375 19.339844 L 70.046875 20.296875 C 68.542969 20.667969 67.066406 21.132812 65.574219 21.546875 C 64.832031 21.769531 64.082031 21.953125 63.347656 22.207031 L 58.988281 23.800781 C 58.257812 24.058594 57.535156 24.328125 56.835938 24.667969 L 52.613281 26.585938 C 51.207031 27.234375 49.878906 28.035156 48.511719 28.753906 L 46.472656 29.859375 L 44.519531 31.105469 C 43.230469 31.957031 41.898438 32.742188 40.648438 33.652344 C 35.597656 37.21875 31.007812 41.386719 26.824219 45.902344 C 22.769531 50.546875 19.203125 55.585938 16.28125 60.972656 C 19.59375 55.816406 23.285156 50.9375 27.535156 46.566406 Z M 320.695312 2.859375 C 326.371094 1.984375 332.132812 1.765625 337.835938 2.269531 C 343.542969 2.734375 349.1875 3.914062 354.632812 5.730469 C 360.070312 7.570312 365.324219 10.035156 370.234375 13.167969 C 365.785156 9.40625 360.652344 6.394531 355.167969 4.261719 C 349.691406 2.097656 343.878906 0.789062 338.003906 0.277344 C 332.125 -0.199219 326.175781 0.117188 320.414062 1.332031 C 314.652344 2.515625 309.085938 4.621094 304.066406 7.582031 C 309.433594 5.316406 315.027344 3.765625 320.695312 2.859375 Z M 379.058594 305.800781 C 385.433594 305.886719 391.816406 305.101562 398.015625 303.546875 C 410.410156 300.417969 421.988281 294.035156 431.300781 285.210938 C 440.503906 276.273438 447.390625 265.058594 451.425781 252.953125 C 453.433594 246.894531 454.78125 240.628906 455.4375 234.300781 C 456.027344 227.96875 456 221.578125 455.136719 215.304688 C 455.546875 221.617188 455.371094 227.953125 454.464844 234.183594 C 453.621094 240.417969 452.117188 246.554688 449.972656 252.445312 C 447.800781 258.324219 445.121094 264.023438 441.757812 269.300781 C 438.40625 274.582031 434.433594 279.464844 429.914062 283.769531 C 420.960938 292.480469 409.667969 298.691406 397.621094 302.066406 C 391.59375 303.769531 385.339844 304.710938 379.058594 304.824219 C 372.773438 305.007812 366.460938 304.269531 360.320312 302.730469 C 366.339844 304.707031 372.695312 305.652344 379.058594 305.800781 Z M 275.363281 59.566406 C 267.550781 57.515625 263.503906 59.328125 258.257812 61.238281 C 254.652344 62.546875 250.945312 63.882812 247.082031 64.09375 C 243.722656 64.28125 239.359375 63.816406 237.589844 60.535156 C 236.769531 59.019531 236.632812 57.152344 237.226562 55.535156 C 238.976562 50.753906 244.675781 49.589844 249.191406 49.425781 C 252.589844 49.304688 255.984375 49.851562 259.269531 50.730469 C 265.253906 52.335938 271.035156 55.136719 275.363281 59.566406 M 284.4375 15.984375 C 284.214844 22.902344 279.832031 28.785156 278.25 35.472656 C 277.007812 40.738281 277.410156 47.03125 279.675781 52 C 275.285156 47.347656 271.503906 41.933594 268.109375 36.457031 C 264.390625 30.453125 261.519531 23.617188 261.5 16.542969 C 261.488281 12.691406 262.558594 9.085938 265.074219 6.253906 C 267.292969 3.757812 270.363281 1.964844 273.660156 1.867188 C 275.472656 1.8125 277.078125 2.289062 278.457031 3.132812 C 282.460938 5.582031 284.589844 11.148438 284.4375 15.984375 Z M 245.214844 43.03125 C 244.851562 43.015625 244.492188 43.003906 244.128906 42.996094 C 240.015625 42.910156 235.839844 43.3125 231.824219 42.417969 C 229.457031 41.890625 227.1875 40.914062 225.199219 39.527344 C 219.265625 35.390625 217.628906 27.875 222.589844 22.15625 C 225.457031 18.847656 229.914062 17.136719 234.289062 17.113281 C 243.363281 17.066406 250.375 23.339844 256.253906 29.53125 C 262.125 35.71875 267.195312 42.601562 272.359375 49.367188 C 274 51.515625 275.570312 53.933594 277.472656 55.855469 C 273.097656 51.4375 264.734375 47.726562 261.871094 46.59375 C 256.566406 44.503906 250.914062 43.277344 245.214844 43.03125 Z M 0.753906 194.203125 C 0.410156 193.695312 0.167969 193.085938 0.0585938 192.355469 C -0.496094 188.722656 3.070312 186.367188 6.277344 186.21875 C 9.632812 186.0625 12.945312 187.265625 15.878906 188.890625 C 18.554688 190.371094 21.210938 192.039062 23.523438 194.011719 C 20.03125 192.621094 17.066406 193.335938 13.882812 194.824219 C 10.675781 196.324219 3.175781 197.78125 0.753906 194.203125 Z M 445.035156 199.707031 C 448.726562 197.523438 451.496094 194.171875 453.578125 190.464844 C 456.40625 185.433594 458.21875 179.84375 461.433594 175.046875 C 462.859375 172.914062 464.644531 170.894531 467.023438 169.921875 C 469.398438 168.953125 472.460938 169.308594 474.066406 171.3125 C 475.734375 173.402344 475.351562 176.460938 474.414062 178.964844 C 472.0625 185.261719 466.863281 190.164062 461.019531 193.480469 C 456.207031 196.214844 450.414062 198.628906 445.035156 199.707031 Z M 135.191406 310.800781 C 137.757812 305.546875 143.699219 304.765625 148.832031 306.167969 C 153.023438 307.3125 156.652344 309.984375 159.71875 313.0625 C 163.90625 317.269531 167.332031 322.171875 171.359375 326.523438 C 174.589844 330.015625 178.300781 333.199219 182.617188 335.269531 C 185.207031 336.511719 190.59375 338.484375 193.464844 337.480469 C 181.722656 341.578125 168.34375 341.65625 156.683594 337.21875 C 148.183594 333.984375 129.753906 322.230469 135.140625 310.902344 C 135.160156 310.867188 135.175781 310.835938 135.191406 310.800781 Z M 129.167969 328.667969 C 136.21875 330.980469 142.808594 339.074219 149.109375 339.929688 C 135.226562 343 124.402344 338.234375 123.671875 332.832031 C 123.3125 330.207031 125.796875 327.5625 129.167969 328.667969 Z M 214.269531 337.992188 C 213.824219 337.992188 213.378906 337.988281 212.933594 337.972656 C 200.191406 337.582031 187.710938 331.480469 178.660156 321.226562 L 167.414062 308.972656 L 167.300781 308.847656 C 165.355469 306.621094 163.601562 304.242188 162.082031 301.777344 C 161.34375 300.574219 160.648438 299.34375 159.996094 298.078125 C 156.683594 298.613281 153.320312 298.90625 150.296875 298.90625 C 150.046875 298.90625 149.800781 298.902344 149.554688 298.898438 L 149.484375 299.121094 L 134.304688 299.328125 L 133.488281 299.335938 C 128.90625 299.335938 124.761719 298.878906 121.433594 298.511719 L 109 297.148438 L 106.230469 298.070312 C 101.15625 299.761719 95.066406 301.488281 88.363281 301.488281 C 84.8125 301.488281 81.378906 301 78.15625 300.035156 L 77.441406 299.820312 C 72.191406 302.695312 66.375 304.195312 60.347656 304.195312 C 58.695312 304.195312 57.019531 304.082031 55.347656 303.855469 L 52.308594 304.113281 C 50.855469 304.238281 49.378906 304.300781 47.917969 304.300781 C 41.230469 304.300781 35.464844 303.015625 31.191406 301.894531 L 24.515625 300.140625 L 21.074219 299.257812 L 21.046875 299.230469 L 13.476562 297.242188 L 2.636719 279.046875 L 4.507812 266.300781 C 7.492188 245.894531 14.710938 225.769531 25.378906 208.113281 C 28.640625 202.71875 32.65625 198.863281 37.371094 196.601562 C 35.089844 194.914062 32.917969 193 30.882812 190.867188 L 19.574219 178.5625 C 12.980469 171.628906 7.914062 162.480469 5.304688 152.789062 C -2.808594 122.644531 7.492188 86.9375 31.550781 61.820312 C 42.84375 50.03125 58.773438 41.675781 73.128906 40.011719 C 75.015625 39.792969 76.921875 39.683594 78.792969 39.683594 C 92.25 39.683594 104.71875 45.304688 114.851562 55.941406 L 126.15625 68.25 C 127.769531 69.945312 129.335938 71.785156 130.84375 73.753906 C 133.738281 73.148438 137.5625 72.59375 141.78125 72.59375 C 143.328125 72.59375 144.859375 72.671875 146.335938 72.820312 L 160.152344 74.230469 L 162.570312 76.914062 C 163.113281 76.890625 163.65625 76.878906 164.195312 76.878906 C 171.382812 76.878906 178.074219 79.054688 183.375 83.0625 C 193.429688 72.714844 206.101562 66.8125 218.371094 66.8125 C 222.988281 66.8125 227.511719 67.621094 231.820312 69.214844 C 236.632812 70.992188 241.070312 73.851562 244.652344 77.476562 L 244.976562 77.808594 L 245.992188 78.917969 L 246.351562 79.304688 C 254.523438 71.058594 264.511719 66.058594 275.570312 64.867188 C 277.09375 64.703125 278.644531 64.621094 280.175781 64.621094 C 280.71875 64.621094 281.257812 64.632812 281.800781 64.652344 C 284.949219 54.632812 288.808594 44.816406 293.328125 35.359375 C 294.855469 32.167969 296.476562 28.976562 298.144531 25.878906 L 298.464844 25.273438 C 300.226562 21.921875 304.410156 13.976562 315.078125 10.542969 C 318.734375 9.367188 322.703125 8.769531 326.878906 8.769531 C 332.464844 8.769531 337.496094 9.855469 340.734375 10.765625 L 352.867188 14.179688 L 373.289062 36.601562 C 373.289062 36.601562 362.285156 58.027344 361.136719 60.273438 C 361.144531 60.273438 361.152344 60.273438 361.15625 60.277344 C 365.59375 57.703125 370.277344 56.882812 373.195312 56.375 L 373.816406 56.261719 C 375.3125 55.980469 377.941406 55.488281 380.992188 55.488281 C 384.105469 55.488281 387.070312 56.015625 389.796875 57.03125 C 390.175781 56.851562 390.5625 56.679688 390.957031 56.519531 C 397.585938 53.835938 404.324219 52.472656 411.003906 52.472656 C 414.265625 52.472656 417.519531 52.804688 420.683594 53.457031 L 423.136719 53.960938 C 428.980469 49.851562 435.351562 48.953125 438.40625 48.523438 L 438.550781 48.5 C 440.808594 48.183594 443.089844 48.023438 445.351562 48.023438 C 448.207031 48.023438 451.070312 48.277344 453.863281 48.777344 L 459.96875 49.878906 L 467.855469 51.226562 L 483.441406 83.304688 L 480.394531 90.335938 C 479.828125 91.984375 477.816406 99.074219 475.777344 107.097656 C 475.089844 109.804688 474.40625 112.519531 473.726562 115.234375 C 471.164062 125.421875 468.515625 135.953125 465.492188 146.40625 C 462.945312 155.214844 459.8125 164.152344 456.183594 172.96875 C 451.726562 183.808594 446.453125 192.230469 439.875 198.925781 C 447.796875 211.667969 449.140625 227.476562 443.746094 244.832031 C 439.492188 258.507812 432.402344 270 422.070312 279.964844 C 419.785156 282.171875 417.296875 284.304688 414.460938 286.488281 C 404.328125 294.296875 390.824219 298.773438 377.414062 298.773438 C 376.152344 298.773438 374.882812 298.734375 373.636719 298.652344 C 366.859375 298.222656 360 296.464844 353.730469 293.628906 C 352.917969 294.089844 352.046875 294.527344 351.113281 294.941406 C 346.796875 296.847656 341.792969 297.855469 336.640625 297.855469 C 330.035156 297.855469 323.722656 296.292969 318.355469 293.421875 C 312.457031 296.640625 305.886719 298.265625 298.757812 298.265625 C 292.601562 298.265625 287.492188 297.007812 284.558594 296.078125 L 279.605469 297.074219 C 278.695312 297.257812 270.511719 298.855469 262.828125 298.855469 C 262.28125 298.855469 261.742188 298.847656 261.214844 298.832031 C 260.132812 304.707031 257.628906 309.328125 256.503906 311.402344 C 253.910156 316.195312 250.535156 320.59375 245.886719 325.238281 L 245.5 325.625 L 245.09375 325.992188 C 236.605469 333.625 225.375 337.992188 214.269531 337.992188" style="fill: rgb(34, 36, 60);"></path></g><g id="__id45_snuowqm6t9"><path d="M 365.746094 194.796875 C 361.992188 194.796875 358.054688 195.5625 354.363281 197.007812 C 348.902344 199.148438 343.972656 202.671875 339.941406 207.238281 L 337.089844 204.132812 C 335.058594 201.980469 332.367188 200.648438 329.300781 200.273438 C 328.441406 200.164062 327.5625 200.113281 326.683594 200.113281 C 325.835938 200.113281 324.984375 200.160156 324.125 200.261719 C 326.421875 191.972656 324.574219 184.148438 318.820312 178.011719 L 318.160156 177.289062 L 317.972656 177.078125 L 317.09375 176.125 L 317.039062 176.070312 L 316.179688 175.128906 L 315.628906 174.53125 L 314.789062 173.621094 L 313.777344 172.511719 L 313.6875 172.421875 L 311.714844 170.265625 L 311.628906 170.179688 L 311.394531 169.925781 L 310.601562 169.050781 L 310.527344 168.980469 L 309.257812 167.601562 L 308.738281 167.027344 L 308.21875 166.464844 L 308.136719 166.367188 L 308.054688 166.285156 L 307.511719 165.699219 C 304.914062 162.953125 302.128906 160.738281 299.054688 159.011719 C 299.585938 158.394531 300.117188 157.753906 300.648438 157.085938 L 303.921875 160.652344 L 304.175781 160.917969 C 306.414062 163.226562 309.082031 164.882812 312.101562 165.839844 C 313.894531 166.410156 315.664062 166.695312 317.367188 166.695312 C 317.742188 166.695312 318.117188 166.683594 318.492188 166.65625 C 321.339844 166.441406 324.160156 165.414062 327.105469 163.515625 C 330.277344 161.476562 333.09375 158.824219 335.542969 155.589844 C 338.507812 157.941406 342.238281 159.449219 346.28125 159.925781 C 345.957031 167.726562 348.691406 175.835938 354.121094 181.75 L 354.226562 181.863281 L 354.625 182.300781 L 354.746094 182.429688 L 355.90625 183.695312 L 356.023438 183.820312 L 365.261719 193.878906 C 365.546875 194.195312 365.839844 194.5 366.136719 194.796875 C 366.007812 194.796875 365.875 194.796875 365.746094 194.796875 Z M 196.039062 176.941406 C 195.902344 177.226562 195.769531 177.515625 195.636719 177.800781 C 192.945312 178.492188 188.828125 177.980469 188.828125 177.980469 L 188.75 177.933594 L 184.15625 172.714844 C 185.574219 171.738281 186.902344 170.691406 188.175781 169.644531 C 190.078125 168.074219 191.851562 166.507812 193.507812 164.925781 L 194.410156 165.902344 L 195.515625 167.113281 C 196.703125 168.496094 198.015625 169.734375 199.449219 170.820312 C 197.9375 172.890625 196.917969 175.0625 196.039062 176.941406 Z M 105.808594 262.789062 C 105.519531 255.59375 105.375 248.089844 105.550781 240.605469 C 107.117188 240.554688 108.738281 240.527344 110.410156 240.511719 C 108.515625 247.722656 106.933594 255.148438 105.808594 262.789062 Z M 451.457031 62.726562 L 451.476562 62.625 L 451.378906 62.609375 L 451.386719 62.558594 C 449.40625 62.203125 447.378906 62.023438 445.351562 62.023438 C 443.742188 62.023438 442.117188 62.136719 440.519531 62.363281 L 440.367188 62.382812 C 437.484375 62.789062 432.660156 63.472656 429.390625 66.972656 C 428.472656 67.957031 427.847656 69.050781 427.398438 70.148438 L 427.273438 70.125 L 427.289062 70.09375 L 426.214844 68.890625 L 417.859375 67.167969 C 415.625 66.707031 413.320312 66.472656 411.003906 66.472656 C 406.136719 66.472656 401.164062 67.488281 396.222656 69.492188 C 393.378906 70.648438 392.136719 73.027344 391.242188 75.609375 L 391.21875 75.570312 L 391.175781 75.53125 L 391.148438 75.496094 L 391.070312 75.417969 L 391.015625 75.34375 L 390.90625 75.242188 L 390.878906 75.203125 L 390.839844 75.167969 L 390.824219 75.144531 L 390.738281 75.0625 L 390.722656 75.035156 L 390.683594 74.996094 L 390.648438 74.949219 L 390.566406 74.871094 L 390.550781 74.847656 L 390.488281 74.785156 L 390.464844 74.757812 L 390.347656 74.632812 L 390.320312 74.59375 L 390.183594 74.457031 L 390.144531 74.402344 L 390.0625 74.324219 L 390.035156 74.28125 L 389.910156 74.160156 L 389.878906 74.113281 L 389.835938 74.074219 L 389.816406 74.046875 L 389.734375 73.96875 L 389.707031 73.925781 L 389.574219 73.796875 L 389.53125 73.730469 L 389.40625 73.613281 L 389.371094 73.558594 L 389.238281 73.429688 L 389.195312 73.367188 L 389.058594 73.234375 L 389.023438 73.183594 L 388.980469 73.136719 L 388.921875 73.078125 L 388.894531 73.035156 L 388.824219 72.972656 L 388.8125 72.953125 L 388.730469 72.871094 L 388.699219 72.832031 L 388.40625 72.542969 C 387.1875 71.152344 384.90625 69.488281 380.992188 69.488281 C 379.238281 69.488281 377.550781 69.808594 376.316406 70.039062 L 375.640625 70.160156 C 371.785156 70.828125 366.988281 71.660156 364.976562 75.84375 C 364.949219 75.902344 364.917969 75.964844 364.890625 76.027344 C 362.113281 74.726562 359.0625 73.925781 355.945312 73.730469 C 355.378906 73.695312 354.8125 73.675781 354.25 73.675781 C 348.558594 73.675781 342.644531 75.476562 337.039062 78.898438 C 339.214844 73.402344 341.6875 67.832031 344.601562 61.875 C 345.082031 60.898438 349.59375 52.09375 352.511719 46.414062 L 356.394531 38.847656 L 345.214844 26.570312 L 336.945312 24.242188 C 334.554688 23.570312 330.871094 22.769531 326.878906 22.769531 C 324.160156 22.769531 321.636719 23.140625 319.367188 23.871094 C 314.140625 25.554688 312.148438 29.335938 310.832031 31.835938 L 310.472656 32.511719 C 308.90625 35.421875 307.390625 38.410156 305.960938 41.398438 C 300.246094 53.355469 295.652344 65.933594 292.308594 78.769531 C 292.113281 79.507812 291.929688 80.25 291.746094 81.003906 C 288.195312 79.460938 284.234375 78.621094 280.175781 78.621094 C 279.136719 78.621094 278.09375 78.675781 277.070312 78.785156 C 263.195312 80.28125 253.410156 90.191406 247.519531 101.359375 C 247.046875 100.746094 246.535156 100.160156 245.988281 99.609375 L 245.871094 99.476562 L 245.351562 98.910156 L 245.304688 98.867188 L 243.6875 97.097656 L 243.273438 96.65625 L 243.132812 96.492188 L 243.085938 96.449219 L 242.179688 95.457031 L 242.132812 95.410156 L 242.039062 95.308594 L 241.253906 94.453125 L 239.828125 92.894531 L 239.78125 92.851562 L 237.488281 90.347656 L 237.425781 90.285156 L 235.976562 88.699219 L 235.722656 88.433594 L 234.832031 87.457031 L 234.691406 87.316406 C 232.539062 85.140625 229.867188 83.421875 226.960938 82.34375 C 224.214844 81.328125 221.324219 80.8125 218.371094 80.8125 C 209.527344 80.8125 200.105469 85.53125 192.519531 93.765625 C 189.609375 96.921875 187.027344 100.566406 184.804688 104.644531 L 184.675781 104.5 L 184.640625 104.464844 L 184.519531 104.324219 L 184.46875 104.277344 L 184.371094 104.167969 L 184.316406 104.109375 L 184.1875 103.964844 L 184.140625 103.917969 L 184.019531 103.78125 L 183.796875 103.546875 L 183.546875 103.265625 L 183.46875 103.191406 L 183.292969 102.988281 L 183.253906 102.953125 L 183.042969 102.71875 L 182.964844 102.640625 L 182.785156 102.4375 L 182.753906 102.40625 L 182.636719 102.277344 L 182.464844 102.097656 L 181.769531 101.339844 L 181.613281 101.164062 L 181.457031 101 L 181.277344 100.796875 L 181.242188 100.761719 L 180.664062 100.125 L 180.613281 100.078125 L 180.523438 99.976562 L 180.457031 99.910156 L 180.332031 99.765625 L 180.273438 99.710938 L 180.132812 99.550781 L 180.089844 99.507812 L 179.984375 99.386719 L 179.9375 99.34375 L 179.421875 98.78125 L 179.296875 98.640625 L 179.246094 98.59375 L 179.136719 98.464844 L 179.082031 98.414062 L 178.84375 98.144531 L 178.769531 98.074219 L 177.929688 97.148438 L 177.886719 97.109375 L 177.570312 96.765625 L 177.144531 96.292969 L 177.09375 96.246094 L 176.851562 95.980469 L 176.59375 95.703125 L 176.460938 95.550781 L 176.234375 95.34375 C 173.238281 92.464844 168.964844 90.878906 164.195312 90.878906 C 161.886719 90.878906 159.511719 91.246094 157.261719 91.933594 L 153.363281 87.609375 L 144.914062 86.746094 C 143.90625 86.644531 142.851562 86.59375 141.78125 86.59375 C 135.789062 86.59375 130.691406 88.195312 130.128906 88.378906 L 128.175781 89.011719 L 126.875 90.601562 C 126.460938 91.109375 126.050781 91.628906 125.652344 92.160156 C 124.714844 89.941406 123.605469 87.867188 122.332031 85.933594 C 120.332031 82.898438 118.171875 80.15625 115.929688 77.8125 L 110.730469 72.148438 L 109.558594 70.871094 L 104.714844 65.597656 C 97.183594 57.691406 88.460938 53.683594 78.792969 53.683594 C 77.460938 53.683594 76.09375 53.761719 74.738281 53.921875 C 63.644531 55.203125 50.660156 62.105469 41.660156 71.503906 C 20.917969 93.160156 11.957031 123.636719 18.824219 149.148438 C 20.847656 156.667969 24.75 163.71875 29.796875 168.992188 L 41.011719 181.203125 C 45.753906 186.175781 51.433594 189.453125 57.433594 190.6875 C 61.3125 191.480469 65.171875 191.886719 68.914062 191.886719 C 87.390625 191.886719 103.648438 182.113281 114.894531 164.652344 L 115.046875 164.820312 L 115.460938 165.277344 L 115.804688 165.648438 L 116.96875 166.921875 L 117.511719 167.507812 L 118.316406 168.386719 L 118.761719 168.863281 L 119.328125 169.488281 L 119.597656 169.777344 L 120.503906 170.765625 L 120.75 171.03125 L 120.890625 171.1875 L 120.933594 171.230469 L 121.085938 171.402344 L 121.261719 171.589844 L 121.703125 172.074219 L 121.75 172.121094 L 122.105469 172.507812 L 122.230469 172.648438 L 122.277344 172.695312 L 123.449219 173.972656 L 123.996094 174.570312 L 124.171875 174.742188 C 127.851562 178.417969 133.234375 180.371094 139.734375 180.390625 L 141.863281 180.394531 C 142.148438 186.734375 144.613281 192.679688 148.777344 197.117188 L 149.488281 197.886719 L 145.195312 197.984375 C 139.863281 198.105469 133.675781 198.335938 127.71875 199.519531 L 123.921875 200.277344 L 122.542969 203.898438 C 121.195312 207.441406 119.851562 211.050781 118.535156 214.71875 L 107.5 201.570312 L 107.390625 201.566406 L 107.386719 201.449219 L 107.175781 201.441406 L 107.175781 201.414062 L 100.714844 201.207031 C 99.539062 201.171875 98.351562 201.152344 97.152344 201.152344 C 87.390625 201.152344 76.828125 202.410156 67.414062 204.695312 L 63.609375 205.621094 L 63.125 207.121094 L 58.402344 207.371094 C 58.132812 207.34375 57.820312 207.324219 57.351562 207.320312 L 57.136719 207.320312 C 53.347656 207.320312 49.542969 207.695312 45.832031 208.429688 C 40.964844 209.386719 38.253906 213.878906 37.363281 215.351562 C 27.648438 231.429688 21.078125 249.746094 18.359375 268.332031 L 17.453125 274.515625 L 28.597656 286.734375 L 28.769531 286.777344 L 28.769531 286.78125 L 34.742188 288.351562 C 38.203125 289.257812 42.828125 290.300781 47.917969 290.300781 C 48.984375 290.300781 50.0625 290.253906 51.113281 290.164062 L 55.875 289.757812 C 57.378906 290.050781 58.878906 290.195312 60.347656 290.195312 C 65.183594 290.195312 69.820312 288.589844 73.757812 285.550781 L 75.929688 283.875 L 77 285.078125 L 82.164062 286.621094 C 84.085938 287.195312 86.171875 287.488281 88.359375 287.488281 C 88.359375 287.488281 88.359375 287.488281 88.363281 287.488281 C 93.050781 287.488281 97.59375 286.191406 101.804688 284.789062 L 106.90625 283.085938 L 106.578125 277.714844 C 106.492188 276.347656 106.410156 274.949219 106.328125 273.53125 L 106.566406 273.558594 L 115.636719 283.792969 L 122.960938 284.597656 C 126.109375 284.941406 129.679688 285.335938 133.394531 285.335938 L 134.113281 285.332031 L 139.175781 285.261719 L 139.828125 283.1875 L 139.828125 283.21875 L 139.933594 283.238281 L 139.9375 283.347656 L 140.050781 283.363281 L 140.050781 283.46875 L 140.160156 283.488281 L 140.164062 283.566406 L 145.792969 284.550781 C 147.132812 284.785156 148.644531 284.90625 150.296875 284.90625 C 153.765625 284.90625 158.046875 284.363281 161.742188 283.457031 L 167.371094 282.074219 L 167.0625 276.285156 C 166.707031 269.640625 166.148438 262.777344 165.558594 255.511719 C 164.503906 242.550781 163.414062 229.148438 163.585938 217.320312 L 163.617188 212.550781 C 165.304688 213.792969 167.140625 214.84375 169.121094 215.671875 C 171.949219 216.855469 174.867188 217.726562 177.933594 218.300781 C 172.355469 233.25 167.65625 248.144531 167 264.050781 C 166.519531 275.707031 168.941406 286.214844 174.003906 294.4375 C 175.113281 296.242188 176.398438 297.980469 177.839844 299.628906 L 189.074219 311.867188 C 195.582031 319.292969 204.429688 323.707031 213.363281 323.980469 C 213.664062 323.988281 213.96875 323.992188 214.269531 323.992188 C 221.964844 323.992188 229.78125 320.929688 235.722656 315.59375 L 235.859375 315.46875 L 235.988281 315.335938 C 239.65625 311.675781 242.261719 308.304688 244.195312 304.734375 C 246.265625 300.914062 248.832031 295.210938 247.238281 289.789062 C 247.042969 289.125 246.761719 288.496094 246.402344 287.910156 C 246.933594 287.695312 247.457031 287.464844 247.972656 287.214844 C 250.078125 286.1875 251.964844 284.929688 253.644531 283.585938 L 256.609375 284.257812 C 258.371094 284.660156 260.410156 284.855469 262.828125 284.855469 C 269.273438 284.855469 276.539062 283.410156 276.847656 283.347656 L 282.371094 282.238281 L 282.425781 279.144531 L 282.558594 279.199219 L 282.585938 279.316406 L 282.59375 279.320312 L 282.605469 279.378906 L 282.699219 279.414062 L 282.722656 279.535156 L 282.8125 279.570312 L 282.832031 279.664062 L 282.96875 279.714844 L 282.984375 279.78125 L 283.03125 279.800781 L 283.074219 280.007812 L 283.246094 280.070312 L 283.257812 280.128906 L 283.328125 280.15625 L 283.339844 280.207031 L 283.429688 280.242188 L 283.445312 280.332031 L 283.511719 280.355469 L 283.546875 280.535156 L 283.761719 280.609375 L 283.777344 280.695312 L 283.84375 280.722656 L 283.886719 280.910156 L 285.464844 281.476562 L 287.507812 282.285156 C 288.019531 282.488281 292.691406 284.265625 298.757812 284.265625 C 304.320312 284.265625 309.308594 282.816406 313.585938 279.964844 L 317.167969 277.558594 L 316.691406 273.644531 L 320.367188 277.648438 L 320.480469 277.761719 C 324.199219 281.578125 330.234375 283.855469 336.640625 283.855469 C 339.859375 283.855469 342.910156 283.261719 345.453125 282.136719 C 349.207031 280.476562 350.839844 278.273438 351.394531 276.039062 C 357.710938 280.933594 366.175781 284.148438 374.527344 284.683594 C 375.476562 284.742188 376.449219 284.773438 377.414062 284.773438 C 387.796875 284.773438 398.183594 281.355469 405.917969 275.394531 C 408.339844 273.53125 410.441406 271.730469 412.351562 269.890625 C 420.945312 261.601562 426.839844 252.046875 430.375 240.675781 C 434.757812 226.589844 433.566406 214.160156 426.9375 204.730469 C 426.152344 203.613281 425.289062 202.550781 424.339844 201.53125 L 422.726562 199.777344 L 422.65625 199.699219 L 422.4375 199.460938 L 422.351562 199.367188 L 422.289062 199.300781 L 420.023438 196.828125 C 421.859375 195.734375 423.621094 194.527344 425.296875 193.214844 C 432.765625 187.363281 438.46875 179.234375 443.238281 167.644531 C 446.675781 159.292969 449.636719 150.839844 452.042969 142.515625 C 454.996094 132.308594 457.617188 121.890625 460.148438 111.820312 C 460.832031 109.09375 461.519531 106.371094 462.210938 103.648438 C 464.15625 95.992188 466.722656 86.679688 467.441406 85.019531 L 451.457031 62.726562" style="fill: rgb(255, 255, 255);"></path></g><g clip-path="url(#__id43_snuowqm6t9)" id="__id46_snuowqm6t9"><path d="M 220.558594 352.351562 C 224.945312 352.269531 229.324219 351.730469 233.628906 350.84375 C 237.921875 349.917969 242.144531 348.640625 246.191406 346.945312 C 250.238281 345.261719 254.132812 343.199219 257.703125 340.691406 C 253.722656 342.472656 249.71875 344.101562 245.640625 345.484375 C 241.558594 346.855469 237.417969 348.015625 233.214844 348.886719 C 229.015625 349.792969 224.757812 350.402344 220.472656 350.800781 C 216.183594 351.1875 211.863281 351.3125 207.503906 351.289062 C 211.78125 352.136719 216.175781 352.449219 220.558594 352.351562 Z M 22.164062 322.316406 C 24.671875 323.371094 27.292969 324.152344 29.953125 324.738281 C 32.617188 325.289062 35.332031 325.640625 38.050781 325.703125 C 40.765625 325.777344 43.492188 325.601562 46.148438 325.050781 C 43.453125 324.769531 40.804688 324.507812 38.175781 324.148438 C 35.550781 323.773438 32.945312 323.347656 30.367188 322.78125 C 27.78125 322.253906 25.230469 321.578125 22.679688 320.851562 C 20.132812 320.109375 17.609375 319.269531 15.03125 318.425781 C 17.234375 320.007812 19.652344 321.277344 22.164062 322.316406 Z M 70.5625 328.167969 C 73.9375 328.070312 77.300781 327.753906 80.644531 327.308594 C 83.984375 326.832031 87.308594 326.222656 90.582031 325.402344 C 93.855469 324.59375 97.089844 323.617188 100.226562 322.351562 C 96.878906 322.8125 93.574219 323.359375 90.273438 323.875 C 86.96875 324.375 83.675781 324.890625 80.371094 325.332031 C 77.070312 325.808594 73.761719 326.207031 70.445312 326.617188 C 67.128906 327.019531 63.800781 327.390625 60.453125 327.855469 C 63.816406 328.21875 67.191406 328.28125 70.5625 328.167969 Z M 454.179688 264.117188 C 457.484375 258.632812 460.113281 252.734375 462.089844 246.636719 C 464.03125 240.523438 465.324219 234.199219 465.828125 227.816406 C 466.363281 221.4375 466.09375 215 464.992188 208.734375 C 465.316406 215.085938 465.058594 221.410156 464.277344 227.652344 C 463.46875 233.894531 462.121094 240.054688 460.1875 246.027344 C 458.285156 252.007812 455.800781 257.804688 452.828125 263.347656 C 449.832031 268.882812 446.359375 274.179688 442.402344 279.152344 C 446.9375 274.695312 450.902344 269.617188 454.179688 264.117188 Z M 372.78125 309.234375 C 378.898438 310.070312 385.121094 310.167969 391.28125 309.625 C 397.4375 309.046875 403.539062 307.832031 409.40625 305.902344 C 415.28125 304.003906 420.914062 301.382812 426.097656 298.101562 C 420.539062 300.699219 414.808594 302.789062 408.960938 304.40625 C 403.105469 306 397.128906 307.101562 391.101562 307.636719 C 385.074219 308.203125 378.996094 308.195312 372.949219 307.6875 C 366.90625 307.152344 360.890625 306.132812 354.957031 304.582031 C 360.648438 306.867188 366.660156 308.429688 372.78125 309.234375 Z M 420.4375 42.464844 C 425.019531 41.207031 429.621094 40.050781 434.277344 39.285156 C 438.921875 38.484375 443.632812 38.085938 448.34375 38.164062 C 453.054688 38.257812 457.765625 38.878906 462.394531 40.136719 C 458.046875 38.089844 453.246094 36.992188 448.421875 36.605469 C 443.589844 36.203125 438.714844 36.527344 433.945312 37.316406 C 429.179688 38.136719 424.511719 39.402344 419.976562 40.980469 C 415.433594 42.550781 411.007812 44.386719 406.671875 46.425781 C 411.296875 45.160156 415.855469 43.738281 420.4375 42.464844 Z M 435.492188 42.488281 C 438.917969 42.03125 442.378906 41.933594 445.820312 42.191406 C 449.269531 42.410156 452.699219 42.972656 456.121094 43.65625 C 459.546875 44.347656 462.957031 45.207031 466.417969 45.984375 C 463.234375 44.421875 459.917969 43.136719 456.496094 42.140625 C 453.082031 41.132812 449.542969 40.464844 445.957031 40.195312 C 442.367188 39.96875 438.730469 40.160156 435.214844 40.960938 C 431.707031 41.742188 428.304688 43.113281 425.414062 45.191406 C 428.699219 43.847656 432.070312 42.964844 435.492188 42.488281 Z M 367.128906 20.816406 C 368.59375 22.519531 370.144531 24.136719 371.710938 25.738281 C 373.3125 27.3125 374.886719 28.878906 376.640625 30.34375 C 378.378906 31.800781 380.394531 33.144531 382.648438 33.609375 C 380.738281 32.371094 379.214844 30.828125 377.714844 29.214844 L 375.460938 26.746094 L 373.128906 24.328125 C 371.53125 22.753906 369.921875 21.195312 368.230469 19.722656 C 366.546875 18.238281 364.8125 16.800781 362.9375 15.507812 C 364.226562 17.386719 365.652344 19.128906 367.128906 20.816406 Z M 189.558594 67.472656 C 192.453125 66.027344 195.441406 64.792969 198.519531 63.855469 C 201.589844 62.878906 204.75 62.199219 207.953125 61.742188 C 211.160156 61.296875 214.414062 61.121094 217.726562 61.121094 C 214.515625 60.292969 211.148438 60.023438 207.808594 60.1875 C 204.460938 60.339844 201.136719 60.964844 197.925781 61.945312 C 194.726562 62.964844 191.636719 64.339844 188.796875 66.113281 C 185.953125 67.878906 183.335938 70.007812 181.160156 72.515625 C 183.886719 70.628906 186.664062 68.925781 189.558594 67.472656 Z M 24.773438 60.914062 C 29.515625 55.667969 34.570312 50.710938 40.191406 46.488281 C 45.78125 42.253906 51.972656 38.789062 58.578125 36.414062 C 65.179688 34.070312 72.246094 32.824219 79.363281 33.300781 C 72.335938 32.046875 64.953125 32.769531 58.082031 34.933594 C 51.183594 37.070312 44.75 40.566406 38.988281 44.894531 C 33.246094 49.257812 28.148438 54.382812 23.597656 59.898438 C 19.019531 65.398438 14.980469 71.296875 11.183594 77.316406 C 15.613281 71.738281 20.046875 66.179688 24.773438 60.914062 Z M 255.28125 19.910156 C 254.148438 15.734375 252.578125 11.628906 250.160156 8.039062 C 248.335938 5.328125 246.078125 2.664062 243.097656 1.195312 C 240.691406 0.0117188 237.628906 -0.925781 235.722656 1.632812 C 234.738281 2.949219 234.601562 4.84375 235.382812 6.289062 C 236.445312 8.257812 238.789062 9.085938 240.925781 9.746094 C 243.320312 10.492188 245.402344 11.46875 247.457031 12.929688 C 250.359375 14.992188 252.847656 17.308594 255.28125 19.910156 Z M 130.230469 320.941406 C 129.789062 319.742188 129.4375 318.515625 129.175781 317.269531 C 128.796875 315.453125 128.59375 313.554688 127.6875 311.933594 C 126.785156 310.316406 124.90625 309.042969 123.121094 309.542969 C 121.472656 310.003906 120.503906 311.851562 120.570312 313.5625 C 120.636719 315.273438 121.523438 316.84375 122.542969 318.21875 C 123.894531 320.046875 125.554688 321.609375 127.46875 322.820312 C 130.152344 324.519531 132.609375 325.085938 133.257812 325.769531 C 132.078125 324.527344 131.273438 323.523438 130.613281 321.929688 C 130.480469 321.601562 130.351562 321.273438 130.230469 320.941406 Z M 9.386719 213.6875 C 8.558594 213.445312 7.796875 212.984375 7.167969 212.257812 C 6.019531 210.925781 5.625 209.074219 5.808594 207.304688 C 6.019531 205.300781 7.050781 203.585938 8.566406 202.207031 C 11.355469 199.675781 15.074219 198.347656 18.769531 197.652344 C 22.136719 197.019531 25.625 196.5625 29.03125 196.617188 C 26.261719 197.511719 23.644531 199.609375 22.023438 201.992188 C 19.964844 205.015625 19.222656 208.851562 16.585938 211.421875 C 14.738281 213.21875 11.789062 214.378906 9.386719 213.6875" style="fill: rgb(224, 251, 252);"></path></g><g id="__id47_snuowqm6t9"><path d="M 235.757812 299.980469 C 234.878906 302.617188 233.867188 305.203125 232.5 307.597656 C 231.160156 309.992188 229.4375 312.175781 227.394531 314.015625 C 225.347656 315.84375 222.914062 317.269531 220.210938 318.035156 C 221.609375 317.863281 222.96875 317.425781 224.269531 316.855469 C 225.558594 316.253906 226.769531 315.484375 227.890625 314.601562 C 230.136719 312.832031 231.960938 310.5625 233.371094 308.085938 C 234.761719 305.597656 235.777344 302.925781 236.492188 300.199219 C 237.222656 297.472656 237.722656 294.707031 238.082031 291.921875 C 237.316406 294.625 236.628906 297.339844 235.757812 299.980469 Z M 339.394531 45.945312 C 337.75 48.460938 336.292969 51.097656 334.976562 53.796875 C 333.675781 56.507812 332.515625 59.285156 331.566406 62.136719 C 331.101562 63.566406 330.660156 65 330.257812 66.445312 C 329.898438 67.902344 329.539062 69.355469 329.269531 70.832031 C 329.519531 70.125 329.757812 69.414062 329.980469 68.703125 L 330.726562 66.589844 C 331.222656 65.183594 331.738281 63.785156 332.289062 62.402344 C 333.398438 59.640625 334.570312 56.902344 335.875 54.230469 C 337.15625 51.550781 338.570312 48.933594 340.050781 46.347656 C 341.535156 43.765625 343.136719 41.25 344.78125 38.746094 C 342.808594 41.003906 341.03125 43.429688 339.394531 45.945312 Z M 328.386719 59.539062 C 326.84375 62.417969 325.476562 65.390625 324.21875 68.40625 C 322.984375 71.433594 321.859375 74.503906 320.925781 77.636719 C 320.460938 79.203125 320.019531 80.773438 319.609375 82.351562 C 319.238281 83.941406 318.859375 85.527344 318.570312 87.136719 C 318.828125 86.359375 319.078125 85.585938 319.3125 84.808594 L 320.078125 82.488281 C 320.585938 80.941406 321.105469 79.402344 321.65625 77.875 C 322.757812 74.820312 323.898438 71.78125 325.144531 68.789062 C 326.367188 65.78125 327.703125 62.824219 329.070312 59.878906 C 330.449219 56.941406 331.921875 54.039062 333.410156 51.136719 C 331.566406 53.832031 329.917969 56.652344 328.386719 59.539062 Z M 314.925781 183.359375 C 315.449219 184.324219 315.769531 185.320312 315.855469 186.390625 C 315.96875 187.453125 315.882812 188.554688 315.75 189.65625 C 315.613281 190.761719 315.40625 191.878906 315.277344 193.027344 C 315.804688 192 316.226562 190.929688 316.515625 189.804688 C 316.8125 188.683594 316.960938 187.496094 316.847656 186.296875 C 316.742188 185.101562 316.292969 183.890625 315.585938 182.949219 C 314.917969 182 314.132812 181.226562 313.886719 180.085938 C 313.699219 181.277344 314.417969 182.410156 314.925781 183.359375 Z M 329.816406 272.589844 C 331.109375 272.664062 332.4375 272.523438 333.632812 271.945312 C 332.328125 271.734375 331.113281 271.6875 329.882812 271.59375 C 328.652344 271.523438 327.441406 271.40625 326.121094 271.441406 C 327.230469 272.171875 328.527344 272.488281 329.816406 272.589844 Z M 328.253906 277.390625 C 331.925781 278.214844 335.792969 278.3125 339.425781 277.433594 C 335.699219 277.523438 332.039062 277.238281 328.476562 276.417969 C 324.902344 275.621094 321.476562 274.300781 318.15625 272.605469 C 321.054688 274.96875 324.589844 276.546875 328.253906 277.390625 Z M 287.890625 271.378906 C 289.753906 271.566406 291.660156 271.503906 293.46875 270.957031 C 291.601562 270.710938 289.804688 270.59375 288 270.382812 C 286.191406 270.207031 284.410156 269.933594 282.535156 269.769531 C 284.183594 270.6875 286.03125 271.160156 287.890625 271.378906 Z M 296.632812 276.699219 C 300.253906 277.085938 303.964844 276.886719 307.453125 275.890625 C 303.839844 276.101562 300.277344 276.105469 296.738281 275.707031 C 293.199219 275.335938 289.722656 274.566406 286.238281 273.582031 C 289.433594 275.300781 293.011719 276.292969 296.632812 276.699219 Z M 240.738281 276.652344 C 242.035156 275.628906 243.214844 274.425781 244.035156 272.960938 C 242.636719 273.882812 241.402344 274.890625 240.125 275.867188 C 238.867188 276.867188 237.589844 277.816406 236.351562 278.945312 C 237.972656 278.507812 239.425781 277.65625 240.738281 276.652344 Z M 257.644531 276.210938 C 259.675781 276.699219 261.808594 276.847656 263.855469 276.414062 C 261.804688 276.054688 259.832031 275.734375 257.882812 275.242188 C 255.929688 274.777344 254.035156 274.144531 252.050781 273.511719 C 253.660156 274.84375 255.621094 275.699219 257.644531 276.210938 Z M 215.382812 314.832031 C 216.683594 314.464844 217.9375 313.941406 219.136719 313.308594 C 221.53125 312.03125 223.632812 310.242188 225.398438 308.1875 C 227.148438 306.117188 228.578125 303.800781 229.707031 301.367188 C 230.269531 300.148438 230.777344 298.910156 231.242188 297.65625 C 231.671875 296.394531 232.097656 295.128906 232.433594 293.835938 C 231.882812 295.054688 231.371094 296.277344 230.789062 297.472656 C 230.238281 298.675781 229.65625 299.863281 229.019531 301.019531 C 227.75 303.332031 226.339844 305.558594 224.640625 307.539062 C 222.957031 309.53125 220.96875 311.261719 218.753906 312.644531 C 216.535156 314.011719 214.042969 314.976562 211.402344 315.359375 C 212.738281 315.382812 214.078125 315.167969 215.382812 314.832031 Z M 201.785156 309.042969 L 203.726562 309.257812 L 205.683594 309.277344 L 207.644531 309.144531 C 210.253906 308.875 212.808594 308.136719 215.207031 307.0625 C 217.597656 305.96875 219.835938 304.53125 221.761719 302.75 L 223.148438 301.359375 L 224.425781 299.875 L 225.542969 298.269531 C 225.875 297.710938 226.195312 297.148438 226.507812 296.582031 C 226.105469 297.089844 225.710938 297.601562 225.328125 298.117188 L 224.054688 299.554688 L 222.703125 300.914062 L 221.257812 302.167969 C 219.273438 303.757812 217.109375 305.117188 214.796875 306.152344 C 212.488281 307.210938 210.042969 307.945312 207.539062 308.386719 C 205.027344 308.820312 202.453125 308.898438 199.878906 308.652344 C 200.507812 308.792969 201.144531 308.925781 201.785156 309.042969 Z M 140.367188 273.882812 C 142.074219 273.964844 143.828125 273.726562 145.371094 272.964844 C 143.660156 272.949219 142.050781 272.988281 140.421875 272.882812 C 138.796875 272.804688 137.199219 272.585938 135.496094 272.402344 C 136.945312 273.335938 138.65625 273.769531 140.367188 273.882812 Z M 148.828125 278.828125 C 151.214844 279.039062 153.652344 278.90625 155.949219 278.207031 C 153.558594 278.117188 151.238281 278.066406 148.921875 277.832031 C 146.597656 277.628906 144.3125 277.25 141.945312 276.886719 C 144.070312 278.003906 146.441406 278.589844 148.828125 278.828125 Z M 119.449219 273.546875 C 121.171875 273.675781 122.90625 273.660156 124.621094 273.265625 C 122.910156 272.867188 121.226562 272.707031 119.535156 272.550781 C 117.839844 272.425781 116.148438 272.304688 114.398438 272.410156 C 116.023438 273.082031 117.734375 273.386719 119.449219 273.546875 Z M 119.855469 276.253906 C 121.445312 276.238281 123.03125 276.152344 124.621094 275.753906 C 123.03125 275.359375 121.445312 275.269531 119.855469 275.253906 C 118.265625 275.273438 116.679688 275.359375 115.089844 275.753906 C 116.679688 276.148438 118.265625 276.238281 119.855469 276.253906 Z M 92.75 250.917969 C 92.785156 252.746094 92.953125 254.574219 93.480469 256.363281 C 93.746094 254.519531 93.757812 252.714844 93.746094 250.90625 C 93.707031 249.097656 93.648438 247.292969 93.335938 245.457031 C 92.859375 247.257812 92.742188 249.089844 92.75 250.917969 Z M 86.988281 280.417969 C 89.703125 280.082031 92.375 279.039062 94.40625 277.242188 C 91.953125 278.359375 89.457031 279.125 86.867188 279.425781 C 84.285156 279.746094 81.675781 279.59375 79.03125 279.085938 C 81.429688 280.347656 84.273438 280.734375 86.988281 280.417969 Z M 54.375 280.382812 C 55.628906 280.3125 56.894531 279.960938 57.902344 279.167969 C 56.632812 279.210938 55.492188 279.339844 54.324219 279.386719 C 53.160156 279.457031 52.015625 279.433594 50.746094 279.511719 C 51.824219 280.203125 53.117188 280.429688 54.375 280.382812 Z M 53.878906 283.894531 C 56.738281 283.875 59.628906 283.21875 62.085938 281.789062 C 59.339844 282.476562 56.621094 282.894531 53.871094 282.894531 C 51.125 282.921875 48.402344 282.523438 45.652344 281.855469 C 48.121094 283.265625 51.015625 283.894531 53.878906 283.894531 Z M 30.503906 278.707031 C 32.339844 279.09375 34.234375 279.28125 36.121094 279.035156 C 34.300781 278.492188 32.507812 278.136719 30.714844 277.730469 C 28.914062 277.355469 27.136719 276.933594 25.257812 276.667969 C 26.871094 277.675781 28.671875 278.289062 30.503906 278.707031 Z M 152.34375 229.039062 C 152.214844 232.078125 152.21875 235.125 152.269531 238.167969 C 152.34375 241.214844 152.46875 244.257812 152.71875 247.289062 L 153.136719 251.835938 C 153.324219 253.347656 153.488281 254.859375 153.730469 256.363281 L 153.269531 238.148438 L 152.972656 219.929688 C 152.636719 222.957031 152.457031 225.996094 152.34375 229.039062 Z M 422.476562 209.375 C 422.753906 211.832031 422.9375 214.28125 422.949219 216.730469 C 422.953125 219.179688 422.839844 221.621094 422.542969 224.046875 C 422.269531 226.472656 421.8125 228.875 421.246094 231.257812 L 420.785156 233.035156 L 420.253906 234.796875 L 419.695312 236.558594 C 419.480469 237.132812 419.277344 237.714844 419.082031 238.304688 C 419.691406 237.226562 420.207031 236.097656 420.714844 234.964844 L 421.386719 233.226562 L 421.984375 231.464844 C 422.738281 229.089844 423.234375 226.636719 423.535156 224.164062 C 423.8125 221.6875 423.902344 219.1875 423.71875 216.703125 C 423.542969 214.222656 423.160156 211.757812 422.476562 209.375 Z M 139.820312 249.804688 C 140.441406 253.496094 141.238281 257.160156 142.324219 260.742188 L 141.25 248.9375 C 140.921875 245.015625 140.605469 241.097656 140.390625 237.171875 C 140.140625 233.25 139.992188 229.320312 139.855469 225.386719 L 139.539062 213.535156 C 138.84375 217.449219 138.472656 221.410156 138.300781 225.378906 C 138.117188 229.34375 138.179688 233.320312 138.394531 237.289062 C 138.644531 241.253906 139.050781 245.210938 139.699219 249.132812 C 139.722656 249.265625 139.746094 249.398438 139.769531 249.53125 C 138.300781 249.511719 136.863281 249.550781 135.4375 249.597656 L 130.5625 249.742188 L 125.683594 249.867188 C 124.382812 249.894531 123.070312 249.933594 121.738281 250.011719 C 121.941406 249.214844 122.15625 248.414062 122.378906 247.617188 L 124.035156 242.039062 C 124.582031 240.179688 125.136719 238.320312 125.722656 236.472656 C 126.839844 232.753906 128.03125 229.0625 129.195312 225.355469 C 130.375 221.652344 131.582031 217.953125 132.691406 214.195312 C 130.816406 217.636719 129.195312 221.199219 127.734375 224.828125 C 126.257812 228.449219 124.976562 232.152344 123.8125 235.886719 C 122.683594 239.632812 121.660156 243.402344 120.863281 247.25 C 120.078125 251.085938 119.613281 255.125 120.316406 259 C 120.417969 256.066406 120.9375 253.230469 121.628906 250.429688 C 122.914062 250.894531 124.238281 251.210938 125.578125 251.417969 C 127.242188 251.679688 128.929688 251.789062 130.613281 251.742188 C 132.300781 251.699219 133.980469 251.496094 135.628906 251.148438 C 137.0625 250.84375 138.472656 250.414062 139.820312 249.804688 Z M 134.574219 224.019531 C 131.5625 232.945312 129.660156 240.199219 127.957031 246.964844 C 130.273438 246.632812 132.585938 246.261719 134.886719 245.839844 C 134.578125 238.617188 134.378906 231.40625 134.574219 224.019531 Z M 148.835938 264.425781 C 145.148438 265.328125 139.507812 266.078125 135.769531 265.421875 C 135.640625 261.957031 135.480469 258.527344 135.316406 255.113281 C 132.1875 255.027344 129.0625 254.972656 125.933594 254.964844 C 124.988281 258.617188 123.992188 262.261719 122.785156 266.097656 C 119.300781 266.144531 115.953125 265.785156 112.492188 265.402344 C 115.324219 244.859375 121.738281 225.703125 129.085938 206.386719 C 134.382812 205.332031 139.957031 205.105469 145.351562 204.984375 C 145.078125 223.699219 147.839844 245.730469 148.835938 264.425781 Z M 94.191406 214.699219 C 92.492188 213.800781 90.546875 213.375 88.621094 213.257812 C 86.691406 213.125 84.765625 213.273438 82.890625 213.550781 C 81.011719 213.832031 79.1875 214.234375 77.363281 214.6875 C 75.539062 215.144531 73.726562 215.667969 71.949219 216.386719 C 73.863281 216.484375 75.746094 216.386719 77.621094 216.21875 C 79.492188 216.058594 81.355469 215.804688 83.183594 215.527344 C 85.015625 215.265625 86.820312 214.976562 88.636719 214.816406 C 90.457031 214.648438 92.273438 214.609375 94.191406 214.699219 Z M 83.773438 219.941406 C 82.742188 223.183594 82.003906 226.503906 81.433594 229.851562 C 80.851562 233.195312 80.488281 236.578125 80.25 239.964844 C 80.050781 243.355469 79.976562 246.757812 80.125 250.148438 C 80.257812 253.542969 80.566406 256.929688 81.175781 260.277344 C 81.398438 256.882812 81.527344 253.515625 81.683594 250.15625 C 81.855469 246.796875 82.011719 243.441406 82.246094 240.09375 C 82.441406 236.742188 82.714844 233.398438 82.976562 230.046875 C 83.25 226.691406 83.554688 223.335938 83.773438 219.941406 Z M 100.492188 208.203125 C 100.65625 212.921875 100.574219 216.59375 99.929688 221.269531 C 95.816406 221.289062 91.679688 221.414062 87.550781 221.699219 C 86.828125 236.378906 87.457031 251.261719 88.355469 265.914062 C 83.507812 267.527344 77.832031 269.144531 72.9375 267.683594 C 73.238281 252.476562 75.28125 237.3125 78.964844 222.558594 C 74.933594 223.09375 70.9375 223.816406 67.011719 224.792969 C 66.984375 220.289062 67.679688 215.785156 69.066406 211.5 C 79.011719 209.085938 90.265625 207.878906 100.492188 208.203125 Z M 44.691406 241.183594 C 43.371094 244.652344 42.273438 248.164062 41.410156 251.71875 C 42.363281 251.59375 43.320312 251.492188 44.25 251.40625 C 44.53125 247.996094 44.925781 244.589844 44.691406 241.183594 Z M 49.863281 255.269531 C 50.382812 257.671875 51.066406 260.039062 52.023438 262.308594 C 51.8125 259.6875 51.53125 257.121094 51.296875 254.554688 C 51.074219 251.988281 50.855469 249.433594 50.726562 246.871094 C 50.558594 244.308594 50.488281 241.746094 50.414062 239.171875 C 50.355469 236.59375 50.34375 234.011719 50.257812 231.382812 C 49.523438 233.90625 49.097656 236.503906 48.859375 239.117188 C 48.613281 241.730469 48.601562 244.359375 48.730469 246.984375 C 48.894531 249.5625 49.203125 252.132812 49.730469 254.664062 C 49.644531 254.660156 49.558594 254.652344 49.472656 254.648438 C 49.476562 254.648438 49.476562 254.652344 49.480469 254.652344 C 48.464844 254.605469 47.46875 254.585938 46.484375 254.546875 C 45.292969 254.53125 44.109375 254.476562 42.929688 254.445312 L 39.367188 254.296875 L 37.554688 254.21875 L 37.09375 254.207031 C 36.976562 254.210938 36.84375 254.191406 36.714844 254.164062 C 36.667969 254.148438 36.617188 254.132812 36.570312 254.113281 C 36.613281 253.894531 36.648438 253.671875 36.695312 253.457031 C 37.371094 250.214844 38.167969 247.007812 39.175781 243.867188 C 40.148438 240.714844 41.324219 237.632812 42.625 234.585938 C 43.941406 231.546875 45.414062 228.566406 46.96875 225.578125 C 44.730469 228.101562 42.835938 230.929688 41.226562 233.90625 C 39.605469 236.882812 38.304688 240.035156 37.269531 243.269531 C 36.265625 246.511719 35.527344 249.839844 35.152344 253.210938 C 34.765625 256.574219 34.703125 259.976562 35.097656 263.328125 C 35.484375 260.390625 35.917969 257.496094 36.46875 254.632812 C 36.597656 254.75 36.738281 254.847656 36.90625 254.925781 L 37.339844 255.128906 C 37.914062 255.382812 38.507812 255.613281 39.113281 255.78125 C 40.324219 256.148438 41.574219 256.355469 42.835938 256.433594 C 44.09375 256.511719 45.363281 256.429688 46.609375 256.234375 C 47.722656 256.03125 48.820312 255.726562 49.863281 255.269531 Z M 58.582031 214.371094 C 58.375 231.574219 58.457031 250.570312 58.246094 267.777344 C 54.375 270.765625 49.878906 271.625 45.125 270.464844 C 44.566406 267.167969 44.234375 263.832031 44.09375 260.484375 C 42.660156 260.632812 41.191406 260.746094 39.785156 260.777344 C 39.386719 264.132812 39.199219 267.523438 39.285156 270.957031 C 34.453125 271.371094 29.972656 270.574219 25.285156 269.347656 C 27.882812 251.578125 34.066406 234.339844 43.351562 218.972656 C 44.199219 217.574219 45.585938 215.609375 47.1875 215.296875 C 50.523438 214.636719 53.925781 214.308594 57.328125 214.320312 C 57.929688 214.324219 57.980469 214.402344 58.582031 214.371094 Z M 400.96875 210.945312 C 400.785156 208.210938 400.351562 205.457031 399.425781 202.851562 C 398.496094 200.261719 397.046875 197.800781 394.976562 196.03125 C 396.726562 198.109375 397.851562 200.574219 398.492188 203.136719 C 399.160156 205.695312 399.367188 208.355469 399.414062 211.007812 C 399.425781 216.332031 398.964844 221.683594 397.730469 226.832031 C 396.527344 231.984375 394.546875 236.953125 391.671875 241.40625 C 388.785156 245.84375 385.042969 249.757812 380.492188 252.707031 C 385.453125 250.492188 389.726562 246.734375 392.957031 242.289062 C 396.222656 237.835938 398.398438 232.632812 399.675781 227.289062 C 400.921875 221.921875 401.304688 216.40625 400.96875 210.945312 Z M 345.675781 231.25 C 345.949219 229.613281 346.292969 227.984375 346.757812 226.390625 C 347.179688 224.78125 347.730469 223.210938 348.328125 221.652344 C 349.523438 218.527344 351.074219 215.546875 352.832031 212.605469 C 350.421875 215.035156 348.417969 217.90625 346.902344 221.023438 C 345.347656 224.128906 344.320312 227.488281 343.703125 230.914062 C 343.425781 232.632812 343.261719 234.367188 343.199219 236.109375 C 343.207031 237.851562 343.222656 239.585938 343.480469 241.320312 C 343.722656 243.050781 344.140625 244.773438 344.855469 246.386719 C 345.582031 247.984375 346.613281 249.476562 347.988281 250.511719 C 345.847656 247.800781 345.21875 244.449219 345.035156 241.171875 C 344.90625 237.851562 345.105469 234.515625 345.675781 231.25 Z M 353.125 228.421875 C 355.097656 228.824219 357.203125 228.492188 358.757812 227.246094 C 360.378906 225.945312 361.824219 224.355469 362.632812 222.4375 C 363.242188 220.996094 363.847656 218.140625 362.792969 216.734375 C 361.660156 215.222656 359.738281 216.695312 358.703125 217.875 C 356.027344 220.925781 354.257812 224.558594 353.125 228.421875 Z M 364.050781 229.769531 C 362.871094 230.871094 361.558594 231.828125 359.855469 232.289062 C 361.613281 232.679688 363.523438 232 365.015625 230.988281 C 366.527344 229.964844 367.796875 228.636719 368.792969 227.121094 C 369.800781 225.613281 370.496094 223.910156 370.882812 222.15625 C 371.261719 220.402344 371.300781 218.578125 370.882812 216.859375 C 370.464844 218.574219 370.003906 220.175781 369.386719 221.703125 C 368.769531 223.230469 368.011719 224.671875 367.125 226.023438 C 366.238281 227.367188 365.210938 228.648438 364.050781 229.769531 Z M 409.976562 196.523438 C 416.148438 205.296875 415.507812 216.554688 412.457031 226.363281 C 409.28125 236.578125 403.921875 245.226562 396.257812 252.617188 C 394.410156 254.398438 392.445312 256.050781 390.414062 257.617188 C 383.082031 263.265625 372.957031 266.050781 363.738281 265.460938 C 353.515625 264.8125 341.246094 259.027344 337.191406 249.070312 C 335.652344 245.304688 335.699219 239.886719 335.894531 235.828125 C 336.113281 231.289062 337.050781 226.777344 338.710938 222.546875 C 342.03125 214.078125 348.371094 206.878906 356.914062 203.527344 C 364.28125 200.636719 373.558594 200.90625 378.617188 207.867188 C 384.890625 216.5 381.25 227.554688 373.679688 233.9375 C 369.640625 237.34375 364.90625 239.644531 359.597656 239.828125 C 356.808594 239.929688 353.964844 239.222656 351.515625 237.875 C 351.425781 239.222656 351.382812 240.566406 351.382812 241.890625 C 351.386719 244.167969 351.558594 246.542969 352.691406 248.515625 C 354.265625 251.253906 357.449219 252.730469 360.582031 253.109375 C 365.609375 253.71875 370.734375 251.882812 374.761719 248.816406 C 380.734375 244.265625 386.023438 236.335938 388.277344 229.226562 C 391.226562 219.9375 390.140625 208.550781 383.324219 201.175781 C 382.148438 199.902344 380.203125 198.710938 380.351562 196.703125 C 380.65625 192.605469 386.203125 189.800781 389.621094 188.894531 C 397.675781 186.75 405.15625 189.667969 409.976562 196.523438 Z M 326.179688 257.992188 C 324.527344 257.296875 323.210938 256.113281 322.269531 254.710938 C 321.304688 253.308594 320.71875 251.714844 320.421875 250.070312 C 320.136719 248.414062 320.085938 246.714844 320.214844 245 C 320.3125 243.289062 320.542969 241.546875 320.796875 239.816406 C 321.265625 236.347656 321.925781 232.902344 322.6875 229.476562 C 323.460938 226.046875 324.378906 222.644531 325.324219 219.210938 C 323.609375 222.335938 322.261719 225.660156 321.1875 229.070312 C 320.101562 232.480469 319.339844 235.992188 318.816406 239.535156 C 318.363281 243.046875 317.925781 246.765625 318.898438 250.414062 C 319.367188 252.222656 320.253906 253.945312 321.496094 255.320312 C 322.746094 256.683594 324.398438 257.730469 326.179688 257.992188 Z M 294.46875 217.515625 C 294.398438 216.53125 294.113281 215.546875 293.550781 214.765625 C 294.285156 216.570312 293.863281 218.457031 293.339844 220.230469 L 291.644531 225.667969 C 290.496094 229.292969 289.402344 232.949219 288.476562 236.675781 C 287.605469 240.40625 286.890625 244.21875 286.722656 248.085938 C 286.660156 249.050781 286.671875 250.019531 286.667969 250.984375 C 286.726562 251.953125 286.726562 252.90625 286.851562 253.890625 C 286.988281 254.863281 287.195312 255.847656 287.632812 256.75 C 288.054688 257.652344 288.757812 258.449219 289.640625 258.835938 C 288.078125 257.628906 287.828125 255.632812 287.828125 253.828125 C 287.867188 251.972656 288.046875 250.078125 288.277344 248.222656 C 288.753906 244.496094 289.527344 240.8125 290.421875 237.144531 C 291.292969 233.464844 292.296875 229.800781 293.144531 226.074219 C 293.578125 224.214844 293.960938 222.34375 294.289062 220.445312 C 294.429688 219.484375 294.550781 218.503906 294.46875 217.515625 Z M 264.855469 218.445312 C 263.53125 221.316406 262.472656 224.289062 261.554688 227.304688 C 260.625 230.316406 259.890625 233.386719 259.257812 236.472656 C 258.660156 239.566406 258.167969 242.683594 257.875 245.820312 C 257.710938 247.386719 257.613281 248.964844 257.546875 250.535156 C 257.519531 251.324219 257.5 252.113281 257.496094 252.902344 C 257.507812 253.285156 257.460938 253.699219 257.566406 254.121094 C 257.617188 254.324219 257.703125 254.527344 257.832031 254.695312 C 257.964844 254.867188 258.1875 254.96875 258.386719 254.929688 C 257.953125 254.886719 257.863281 254.425781 257.867188 254.082031 C 257.851562 253.722656 257.972656 253.355469 258.046875 252.960938 L 258.519531 250.652344 L 259.417969 246.046875 C 260.023438 242.980469 260.59375 239.914062 261.21875 236.863281 C 261.804688 233.800781 262.449219 230.75 263.0625 227.6875 C 263.6875 224.625 264.324219 221.5625 264.855469 218.445312 Z M 223.875 248.984375 C 224.121094 247.410156 224.460938 245.796875 224.8125 244.199219 C 225.46875 240.992188 226.230469 237.8125 227.019531 234.628906 L 229.488281 225.046875 C 227.90625 227.972656 226.621094 231.042969 225.527344 234.183594 C 224.425781 237.316406 223.5625 240.535156 222.855469 243.785156 C 222.53125 245.417969 222.207031 247.039062 221.996094 248.730469 C 221.820312 250.414062 221.738281 252.171875 222.074219 253.898438 C 222.363281 255.628906 223.152344 257.320312 224.3125 258.617188 C 225.464844 259.917969 227.101562 260.855469 228.785156 260.894531 C 227.1875 260.402344 225.921875 259.328125 225.085938 258.015625 C 224.222656 256.703125 223.753906 255.222656 223.621094 253.679688 C 223.496094 252.136719 223.601562 250.566406 223.875 248.984375 Z M 331.578125 239.691406 C 330.957031 244.066406 330.648438 248.550781 331.238281 252.945312 C 331.5625 255.351562 332.367188 257.476562 333.019531 259.78125 C 333.6875 262.136719 333.847656 262.414062 331.390625 263.5 C 326.191406 265.796875 317.117188 264.570312 313.535156 259.808594 C 310.027344 255.136719 310.707031 247.949219 311.621094 241.546875 C 312.636719 234.429688 313.351562 227.394531 315.453125 220.542969 C 312.003906 222.785156 309.230469 226.167969 306.96875 229.667969 C 302.808594 236.097656 299.835938 243.277344 298.179688 250.753906 C 297.894531 257.378906 298.464844 261.90625 298.464844 261.90625 C 289.628906 267.804688 278.847656 263.539062 278.847656 263.539062 C 278.230469 260.78125 278.246094 257.921875 278.4375 255.101562 C 279.179688 244.144531 282.507812 233.570312 286.058594 223.15625 C 279.589844 227.546875 275.277344 234.789062 271.871094 241.960938 C 268.90625 248.203125 266.382812 254.652344 264.285156 261.238281 C 264.253906 263.003906 264.234375 264.253906 264.234375 264.253906 C 264.234375 264.253906 252.835938 266.542969 246.925781 265.199219 C 247.121094 261.746094 247.488281 258.339844 247.972656 255.015625 C 246.570312 256.875 245.117188 258.6875 243.582031 260.433594 C 240.726562 263.683594 237.570312 266.792969 233.679688 268.683594 C 229.789062 270.574219 225.03125 271.097656 221.164062 269.164062 C 216.984375 267.078125 214.511719 262.472656 213.855469 257.847656 C 213.203125 253.222656 214.097656 248.53125 215.136719 243.976562 C 217.5 233.585938 224.234375 222.390625 230.445312 213.730469 C 234.59375 212.25 241.402344 212.246094 241.402344 212.246094 C 237.355469 218.980469 234.488281 227.433594 232.535156 235.046875 C 231.441406 239.296875 228.9375 252.996094 234.644531 255.578125 C 236.113281 256.242188 237.804688 255.417969 239.144531 254.519531 C 243.972656 251.277344 247.933594 246.789062 250.621094 241.636719 C 255.136719 223.449219 262.003906 210.21875 262.003906 210.21875 C 262.003906 210.21875 268.710938 209.5625 272.238281 209.496094 C 268.996094 218.394531 266.992188 227.699219 265.621094 237.054688 C 265.472656 238.078125 265.34375 239.089844 265.234375 240.101562 C 267.933594 233.964844 271.09375 227.992188 275.214844 222.695312 C 279.929688 216.636719 288.675781 206.640625 297.453125 209.246094 C 303.800781 211.132812 304.160156 218.136719 303.128906 224.355469 C 304.78125 222.011719 306.558594 219.753906 308.453125 217.597656 C 311.035156 214.660156 313.871094 211.882812 317.238281 209.894531 C 320.605469 207.902344 324.566406 206.742188 328.449219 207.21875 C 333.40625 207.828125 334.261719 212.863281 334.378906 217.234375 C 334.585938 224.785156 332.644531 232.210938 331.578125 239.691406 Z M 213.925781 287.324219 C 211.523438 288.789062 208.746094 289.535156 205.980469 289.539062 C 203.214844 289.578125 200.46875 288.894531 198 287.730469 C 195.527344 286.554688 193.363281 284.8125 191.621094 282.714844 C 189.859375 280.632812 188.507812 278.21875 187.527344 275.671875 C 185.550781 270.558594 185.167969 264.953125 185.777344 259.488281 C 186.339844 253.988281 187.851562 248.628906 189.46875 243.261719 C 191.050781 237.890625 192.796875 232.5625 194.5 227.207031 C 196.199219 221.859375 197.84375 216.445312 199.363281 211.058594 C 201.621094 203.449219 204.140625 195.914062 206.894531 188.453125 C 211.035156 187.261719 215.15625 185.988281 219.246094 184.648438 C 223.5 183.292969 227.714844 181.84375 231.964844 180.523438 C 236.199219 179.167969 240.449219 177.867188 244.742188 176.765625 C 249.019531 175.589844 253.355469 174.664062 257.714844 173.933594 L 260.988281 173.414062 L 264.28125 173.046875 C 266.480469 172.785156 268.683594 172.660156 270.878906 172.617188 C 275.261719 172.570312 279.691406 173.039062 283.789062 174.609375 C 287.890625 176.117188 291.632812 178.800781 294.121094 182.527344 C 292.015625 178.550781 288.28125 175.566406 284.164062 173.703125 C 279.992188 171.847656 275.398438 171.144531 270.886719 171.058594 C 261.84375 171 252.90625 172.542969 244.234375 174.832031 C 235.554688 177.121094 227.128906 180.148438 218.742188 183.175781 C 214.941406 184.550781 211.144531 185.917969 207.328125 187.242188 C 208.324219 184.578125 209.347656 181.921875 210.402344 179.273438 C 209.097656 181.988281 207.84375 184.726562 206.636719 187.488281 C 202.265625 189 197.867188 190.441406 193.410156 191.726562 C 197.6875 190.898438 201.921875 189.824219 206.128906 188.675781 C 203.039062 195.84375 200.273438 203.160156 197.878906 210.601562 C 194.578125 221.34375 190.816406 231.894531 187.554688 242.691406 C 185.964844 248.074219 184.414062 253.589844 183.890625 259.300781 C 183.371094 264.96875 183.808594 270.910156 186.078125 276.25 C 187.195312 278.90625 188.679688 281.4375 190.632812 283.574219 C 192.5625 285.722656 194.9375 287.496094 197.597656 288.625 C 200.261719 289.714844 203.148438 290.257812 206 290.066406 C 208.851562 289.933594 211.644531 288.96875 213.925781 287.324219 Z M 244.011719 189.421875 L 243.769531 189.507812 L 243.429688 189.628906 L 243.496094 189.652344 C 242.535156 190.148438 241.648438 190.757812 240.859375 191.503906 C 240.019531 192.296875 239.285156 193.269531 238.765625 194.335938 C 238.246094 195.386719 237.847656 196.691406 238.113281 198.035156 C 238.253906 198.703125 238.582031 199.304688 239.027344 199.773438 C 239.484375 200.230469 240.101562 200.554688 240.699219 200.519531 C 239.808594 199.761719 239.609375 198.75 239.65625 197.882812 C 239.726562 197.007812 240.09375 196.136719 240.550781 195.226562 C 241.007812 194.308594 241.535156 193.449219 242.113281 192.550781 C 242.683594 191.652344 243.304688 190.734375 243.851562 189.714844 Z M 166.804688 192.472656 C 165.40625 191.171875 164.011719 189.964844 162.722656 188.683594 C 161.433594 187.40625 160.261719 186.058594 159.253906 184.617188 C 157.246094 181.726562 155.953125 178.394531 155.855469 174.597656 C 155.085938 176.355469 154.976562 178.40625 155.332031 180.335938 C 155.6875 182.277344 156.480469 184.136719 157.609375 185.757812 C 158.730469 187.378906 160.15625 188.753906 161.71875 189.878906 C 163.28125 191.003906 164.984375 191.890625 166.804688 192.472656 Z M 229.289062 279.542969 C 230.15625 282.476562 228.164062 286.664062 226.808594 289.164062 C 224.992188 292.519531 222.492188 295.46875 219.808594 298.152344 C 215.066406 302.414062 208.71875 304.945312 202.347656 304.75 C 193.183594 304.46875 184.769531 298.574219 179.964844 290.765625 C 175.160156 282.960938 173.617188 273.496094 173.996094 264.339844 C 174.703125 247.195312 180.558594 230.929688 186.632812 215.089844 C 188.878906 209.234375 191.289062 203.441406 193.789062 197.6875 C 182.636719 199.894531 171.550781 201.570312 160.589844 196.980469 C 153.726562 194.109375 149.085938 187.722656 148.847656 179.785156 C 148.492188 168.195312 159.300781 163.160156 165.714844 166.871094 C 159.628906 172.226562 162.59375 180.207031 168.441406 183.835938 C 177.808594 189.648438 190.378906 186.464844 200.453125 183.769531 C 200.769531 183.160156 201.089844 182.558594 201.398438 181.945312 C 203.003906 178.777344 204.210938 175.238281 207.007812 172.878906 C 210.90625 169.585938 218.136719 168.632812 223.054688 168.195312 C 222.261719 168.269531 219.976562 174.496094 219.578125 175.378906 C 219.195312 176.21875 218.832031 177.066406 218.464844 177.914062 C 224.753906 175.519531 230.964844 172.902344 237.195312 170.40625 C 245.507812 167.074219 253.59375 163.667969 262.40625 162.035156 C 269.847656 160.660156 277.511719 160.527344 284.992188 161.640625 C 291.957031 162.679688 297.496094 165.292969 302.425781 170.507812 C 307.050781 175.398438 307.921875 181.460938 305.601562 187.855469 C 304.519531 190.84375 303.023438 193.804688 300.734375 196.007812 C 296.578125 200.007812 293.359375 200.007812 293.359375 200.007812 C 293.359375 200.007812 296.324219 192.777344 287.625 188.726562 C 285.75 187.855469 283.773438 187.230469 281.753906 186.808594 C 270.925781 184.535156 260.027344 184.652344 249.234375 186.128906 C 249.816406 187.699219 250.050781 189.550781 249.941406 191.167969 C 249.71875 194.390625 248.328125 197.46875 246.308594 199.992188 C 244.871094 201.789062 243.011719 203.382812 240.761719 203.886719 C 232.394531 205.761719 234.164062 194.851562 236.195312 190.46875 C 236.558594 189.683594 237 188.9375 237.496094 188.230469 C 236.941406 188.351562 236.390625 188.46875 235.835938 188.59375 C 231.867188 189.496094 227.917969 190.480469 223.96875 191.464844 C 220.070312 192.4375 216.15625 193.277344 212.226562 194.066406 C 211.679688 195.644531 211.136719 197.226562 210.609375 198.8125 C 205.574219 213.898438 200.90625 228.933594 199.261719 244.820312 C 198.28125 254.261719 197.953125 265.132812 204.300781 272.824219 C 207.269531 276.425781 211.527344 279.683594 216.230469 280.734375 C 218.867188 281.328125 221.019531 280.886719 223.570312 280.25 C 224.960938 279.902344 228.777344 277.785156 229.289062 279.542969 Z M 435.226562 89.066406 C 432.308594 100.804688 429.523438 112.570312 426.253906 124.179688 C 424.597656 129.980469 422.898438 135.761719 420.671875 141.324219 C 418.46875 146.882812 415.773438 152.261719 412.230469 157.019531 C 408.71875 161.785156 404.363281 165.96875 399.285156 168.972656 C 396.757812 170.488281 394.046875 171.695312 391.214844 172.488281 C 388.394531 173.3125 385.449219 173.71875 382.523438 173.613281 C 379.605469 173.507812 376.691406 172.835938 374.105469 171.503906 C 371.519531 170.171875 369.25 168.164062 367.730469 165.667969 C 366.976562 164.421875 366.40625 163.050781 366.109375 161.617188 C 365.828125 160.183594 365.8125 158.6875 366.050781 157.226562 C 366.554688 154.320312 368.117188 151.523438 370.617188 149.785156 C 369.324219 150.570312 368.203125 151.648438 367.328125 152.90625 C 366.476562 154.179688 365.878906 155.621094 365.53125 157.125 C 365.207031 158.632812 365.144531 160.203125 365.363281 161.75 C 365.605469 163.292969 366.140625 164.78125 366.878906 166.160156 C 368.40625 168.898438 370.757812 171.125 373.484375 172.660156 C 376.226562 174.195312 379.339844 174.972656 382.445312 175.171875 C 385.558594 175.371094 388.691406 175.007812 391.679688 174.179688 C 394.683594 173.386719 397.5625 172.15625 400.242188 170.605469 C 405.613281 167.496094 410.160156 163.140625 413.839844 158.210938 C 417.488281 153.238281 420.242188 147.699219 422.433594 142.011719 C 424.597656 136.300781 426.269531 130.453125 427.757812 124.585938 C 430.785156 112.847656 433.066406 100.960938 435.226562 89.066406 Z M 421.726562 111.277344 C 418.796875 115.007812 414.792969 117.769531 410.410156 118.96875 C 408.25 119.523438 405.933594 119.628906 404.007812 118.800781 C 403.050781 118.402344 402.21875 117.78125 401.546875 116.984375 C 400.890625 116.199219 400.335938 115.191406 400.03125 114.230469 C 399.378906 112.242188 399.582031 109.882812 399.738281 107.5625 C 399.898438 105.234375 400.226562 102.921875 400.648438 100.621094 C 401.519531 96.023438 402.910156 91.519531 404.699219 87.113281 C 402.171875 91.144531 400.3125 95.628906 399.132812 100.285156 C 398.515625 102.609375 398.132812 104.996094 397.859375 107.390625 C 397.730469 108.59375 397.640625 109.78125 397.628906 111.027344 C 397.628906 112.265625 397.730469 113.5625 398.128906 114.835938 C 398.328125 115.480469 398.617188 116.082031 398.933594 116.636719 C 399.253906 117.203125 399.621094 117.753906 400.058594 118.253906 C 400.929688 119.253906 402.046875 120.09375 403.304688 120.558594 C 405.824219 121.492188 408.511719 121.257812 410.855469 120.464844 C 415.550781 118.875 419.488281 115.484375 421.726562 111.277344 Z M 375.15625 126.972656 C 372.410156 127.847656 369.46875 126.8125 367.917969 124.863281 C 367.183594 123.898438 366.707031 122.632812 366.582031 121.386719 C 366.441406 120.125 366.574219 118.804688 366.890625 117.492188 C 367.15625 116.160156 367.628906 114.871094 368.046875 113.472656 C 368.4375 112.085938 368.832031 110.703125 369.136719 109.300781 C 369.78125 106.507812 370.285156 103.691406 370.621094 100.832031 C 369.484375 103.480469 368.5625 106.1875 367.640625 108.875 L 366.25 112.890625 C 365.789062 114.203125 365.273438 115.59375 364.9375 117.054688 C 364.625 118.519531 364.46875 120.082031 364.707031 121.648438 C 364.832031 122.429688 365.078125 123.195312 365.410156 123.917969 C 365.730469 124.632812 366.171875 125.320312 366.75 125.898438 C 368.996094 128.226562 372.746094 128.648438 375.15625 126.972656 Z M 364.242188 95.460938 C 360.234375 93.921875 355.480469 95.136719 352.230469 97.941406 C 348.976562 100.742188 347.117188 104.917969 346.472656 109.160156 C 346.289062 110.375 346.210938 111.679688 346.785156 112.765625 C 348.851562 116.6875 353.34375 113.992188 355.453125 111.84375 C 358.386719 108.859375 360.828125 105.40625 362.695312 101.664062 C 363.148438 100.011719 363.632812 98.371094 364.152344 96.742188 Z M 348.492188 126.0625 C 347.289062 128.128906 345.375 129.660156 343.222656 130.378906 C 341.078125 131.128906 338.738281 130.984375 336.761719 130.03125 C 334.789062 129.089844 333.132812 127.472656 332.351562 125.484375 C 331.527344 123.496094 331.441406 121.199219 331.621094 118.90625 C 331.953125 114.269531 333 109.679688 334.636719 105.292969 C 336.289062 100.910156 338.554688 96.742188 341.335938 92.855469 C 337.921875 96.207031 335.179688 100.28125 333.199219 104.699219 C 331.203125 109.121094 330.011719 113.90625 329.625 118.769531 C 329.476562 121.195312 329.546875 123.8125 330.613281 126.234375 C 331.699219 128.648438 333.746094 130.539062 336.148438 131.464844 C 337.34375 131.9375 338.628906 132.191406 339.914062 132.152344 C 341.195312 132.117188 342.449219 131.808594 343.589844 131.289062 C 345.859375 130.238281 347.695312 128.324219 348.492188 126.0625 Z M 314.582031 135.414062 C 312.765625 136.28125 310.675781 136.238281 308.855469 135.609375 C 307.019531 134.984375 305.398438 133.796875 304.195312 132.324219 C 302.980469 130.863281 302.15625 129.070312 301.628906 127.226562 C 301.089844 125.375 300.804688 123.441406 300.671875 121.492188 C 300.269531 113.628906 300.902344 105.691406 302.222656 97.898438 C 302.894531 94.003906 303.675781 90.117188 304.652344 86.273438 C 305.574219 82.414062 306.660156 78.59375 307.785156 74.78125 C 310.054688 67.160156 312.585938 59.597656 315.007812 51.988281 C 311.859375 59.324219 308.839844 66.722656 306.300781 74.3125 C 303.714844 81.878906 301.628906 89.648438 300.25 97.566406 C 299.605469 101.535156 299.144531 105.535156 298.90625 109.550781 C 298.851562 110.554688 298.851562 111.5625 298.820312 112.570312 C 298.785156 113.574219 298.769531 114.582031 298.808594 115.589844 L 298.878906 118.605469 C 298.929688 119.613281 299.007812 120.621094 299.117188 121.632812 C 299.339844 123.648438 299.695312 125.679688 300.378906 127.625 C 301.0625 129.570312 302.027344 131.441406 303.460938 132.972656 C 304.894531 134.476562 306.714844 135.601562 308.703125 136.117188 C 309.691406 136.378906 310.726562 136.480469 311.738281 136.375 C 312.75 136.261719 313.730469 135.933594 314.582031 135.414062 Z M 295.191406 100.738281 C 291.484375 99.632812 287.566406 99.40625 284.3125 101.03125 C 280.851562 102.761719 278.203125 105.824219 276.257812 109.171875 C 273.765625 113.460938 269.0625 125.550781 278.261719 124.601562 C 280.417969 124.382812 282.40625 123.304688 284.140625 122.003906 C 288.558594 118.6875 292.023438 113.144531 293.683594 107.941406 C 294.09375 106.664062 294.382812 105.367188 294.742188 104.085938 C 294.828125 103.433594 294.902344 102.78125 294.992188 102.132812 C 295.058594 101.667969 295.125 101.203125 295.191406 100.738281 Z M 279.515625 132.761719 C 278.003906 134.519531 276.328125 136.121094 274.410156 137.304688 C 272.515625 138.511719 270.386719 139.316406 268.234375 139.496094 C 266.078125 139.667969 263.871094 139.277344 262.042969 138.25 C 261.132812 137.734375 260.320312 137.085938 259.652344 136.289062 C 258.984375 135.496094 258.476562 134.566406 258.078125 133.578125 C 257.273438 131.589844 256.980469 129.363281 256.902344 127.128906 C 256.816406 124.875 256.9375 122.609375 257.222656 120.359375 C 257.796875 115.855469 259.128906 111.441406 261.058594 107.21875 C 258.40625 111.035156 256.578125 115.476562 255.6875 120.109375 C 255.207031 122.425781 255.035156 124.796875 255.015625 127.167969 C 255.035156 129.546875 255.324219 131.984375 256.222656 134.316406 C 256.695312 135.46875 257.328125 136.585938 258.160156 137.554688 C 259 138.519531 260.023438 139.339844 261.148438 139.921875 C 263.414062 141.054688 265.984375 141.433594 268.414062 141.046875 C 270.871094 140.695312 273.109375 139.578125 274.976562 138.105469 C 276.84375 136.621094 278.363281 134.777344 279.515625 132.761719 Z M 450.148438 69.449219 C 449.417969 69.316406 444.664062 87.824219 444.191406 89.6875 C 440.914062 102.59375 437.789062 115.539062 434.085938 128.335938 C 431.691406 136.617188 428.808594 144.777344 425.53125 152.746094 C 421.949219 161.445312 417.253906 169.589844 409.742188 175.472656 C 403.226562 180.578125 395.261719 183.824219 387.03125 184.726562 C 378.550781 185.660156 369.113281 184.644531 362.046875 179.496094 C 353.878906 173.546875 350.738281 160.695312 355.480469 151.671875 C 359.515625 143.996094 367.714844 139.761719 376.339844 141.203125 C 377.945312 141.472656 382.039062 142.519531 382.46875 144.507812 C 382.738281 145.773438 381.3125 145.921875 380.476562 146.542969 C 379.664062 147.144531 379.015625 147.96875 378.648438 148.910156 C 377.398438 152.097656 379.554688 155.039062 382.03125 156.851562 C 388.363281 161.488281 396.6875 158.554688 402.558594 154.449219 C 407.03125 151.320312 410.539062 146.949219 413.238281 142.242188 C 415.644531 138.046875 417.019531 132.894531 418.46875 128.304688 C 419.324219 125.574219 420.125 122.828125 420.90625 120.078125 C 418.082031 123.105469 414.988281 125.820312 411.601562 127.996094 C 406.171875 131.488281 399.546875 133.328125 393.867188 129.394531 C 390.066406 126.761719 388.722656 123.015625 388.425781 118.976562 C 387.480469 121.035156 386.421875 123.035156 385.175781 124.925781 C 382.246094 129.375 378.25 133.257812 373.324219 135.285156 C 369.703125 136.777344 364.980469 137.175781 362.136719 134.09375 C 359.433594 131.160156 358.832031 127.269531 359.019531 123.402344 C 356.558594 127.277344 353.789062 130.953125 350.710938 134.355469 C 347.125 138.320312 343.425781 140.804688 337.96875 140.851562 C 333.554688 140.886719 328.921875 139.175781 326.367188 135.417969 C 325.554688 134.226562 324.976562 132.886719 324.480469 131.527344 C 324.261719 130.925781 324.058594 130.316406 323.871094 129.703125 C 321.402344 136 317.699219 141.78125 312.085938 145.394531 C 310.460938 146.441406 308.65625 147.296875 306.734375 147.441406 C 305.46875 147.535156 304.195312 147.320312 302.984375 146.933594 C 296.605469 144.910156 293.859375 138.371094 292.992188 132.234375 C 292.757812 130.585938 292.71875 128.972656 292.765625 127.371094 C 290.789062 130.929688 288.492188 134.304688 286.054688 137.691406 C 282.085938 143.210938 276.988281 148.914062 270.371094 151.179688 C 264.039062 153.34375 258.125 151.472656 253.539062 146.867188 C 249.8125 143.125 247.863281 137.875 247.371094 132.617188 C 246.878906 127.359375 247.746094 122.0625 249.015625 116.9375 C 252.480469 102.953125 262.242188 87.425781 277.820312 85.746094 C 284.722656 85.003906 292.289062 87.566406 296.371094 93.207031 C 297.109375 88.96875 297.980469 84.753906 299.082031 80.535156 C 302.316406 68.109375 306.742188 55.996094 312.277344 44.414062 C 313.660156 41.519531 315.113281 38.65625 316.636719 35.832031 C 317.96875 33.351562 318.71875 31.433594 321.515625 30.53125 C 325.707031 29.183594 330.882812 29.808594 335.050781 30.980469 C 335.050781 30.980469 327.761719 45.171875 327.082031 46.566406 C 324.265625 52.320312 321.636719 58.171875 319.277344 64.132812 C 315.839844 72.832031 313.089844 81.792969 310.855469 90.871094 C 308.566406 100.179688 306.789062 109.058594 307.4375 118.683594 C 307.652344 121.851562 309.335938 128.335938 314.605469 126.839844 C 317.683594 125.96875 320.691406 124.109375 322.339844 114.042969 C 322.621094 111.324219 323.183594 108.632812 324.027344 106.03125 C 326.710938 97.796875 332.21875 90.515625 339.410156 85.691406 C 344.15625 82.507812 349.796875 80.355469 355.503906 80.714844 C 360.199219 81.011719 364.886719 83.246094 367.714844 86.933594 C 368.828125 84.195312 370.023438 81.503906 371.285156 78.875 C 371.785156 77.839844 376.1875 77.179688 377.253906 76.984375 C 379.796875 76.515625 384.582031 75.445312 383.261719 79.367188 C 382.105469 82.789062 380.664062 86.117188 379.480469 89.527344 C 377.089844 96.414062 375.109375 103.488281 374.328125 110.753906 C 374.195312 111.984375 374.101562 113.257812 374.472656 114.4375 C 374.847656 115.621094 375.800781 116.699219 377.027344 116.859375 C 378.121094 117.007812 379.171875 116.425781 380.089844 115.808594 C 384.21875 113.039062 387.574219 109.144531 389.742188 104.671875 C 390.261719 101.851562 390.914062 99.0625 391.671875 96.300781 C 392.640625 92.75 393.796875 89.253906 395.050781 85.796875 C 395.664062 84.101562 396.304688 82.417969 396.960938 80.738281 C 397.25 79.996094 398.1875 76.25 398.855469 75.980469 C 404.480469 73.699219 410.492188 72.796875 416.449219 74.023438 C 414.085938 79.699219 411.980469 85.5 410.480469 91.464844 C 409.742188 94.410156 409.148438 97.394531 408.773438 100.40625 C 408.351562 103.777344 406.316406 110.808594 411.769531 110.992188 C 414.28125 111.078125 416.007812 109.226562 417.863281 107.777344 C 419.957031 106.140625 421.871094 104.269531 423.570312 102.226562 C 425.058594 100.433594 426.367188 98.492188 427.503906 96.457031 C 428.703125 92.136719 429.914062 87.820312 431.109375 83.5 C 431.699219 81.367188 432.285156 79.234375 432.863281 77.101562 C 433.269531 75.605469 433.445312 72.886719 434.507812 71.75 C 436.125 70.015625 439.285156 69.605469 441.5 69.292969 C 444.367188 68.886719 447.296875 68.9375 450.148438 69.449219 Z M 106.222656 126.28125 C 101.582031 127.308594 96.828125 126.6875 92.578125 125.003906 C 88.320312 123.308594 84.59375 120.488281 81.5 117.097656 C 79.929688 115.417969 78.527344 113.578125 77.238281 111.652344 C 75.933594 109.742188 74.78125 107.714844 73.734375 105.648438 C 71.683594 101.503906 70.230469 97.007812 70.085938 92.257812 C 69.386719 96.980469 70.457031 101.886719 72.320312 106.296875 C 74.203125 110.71875 76.769531 114.851562 80.03125 118.449219 C 81.679688 120.222656 83.503906 121.855469 85.515625 123.230469 C 87.535156 124.589844 89.726562 125.730469 92.046875 126.46875 C 96.648438 127.992188 101.816406 128.128906 106.222656 126.28125 Z M 75.472656 132.671875 C 71.980469 129.628906 69.035156 125.863281 66.84375 121.941406 C 62.167969 113.566406 60.113281 103.15625 62.070312 93.699219 C 62.132812 93.390625 62.214844 93.089844 62.285156 92.789062 C 57.753906 101.0625 55.96875 111.3125 55.617188 120.222656 C 55.492188 123.425781 55.582031 126.738281 56.898438 129.660156 C 60.6875 138.085938 69.410156 137.671875 75.472656 132.671875 Z M 66.0625 155.589844 C 62.136719 156.277344 58.097656 155.75 54.511719 154.238281 C 50.902344 152.773438 47.691406 150.421875 45.207031 147.488281 C 42.726562 144.53125 40.894531 141.0625 39.75 137.371094 C 38.582031 133.6875 38.035156 129.804688 38.066406 125.925781 C 38.070312 118.132812 40.183594 110.441406 42.910156 103.058594 C 45.675781 95.675781 49.144531 88.507812 53.84375 82.074219 C 48.535156 88.023438 44.511719 95.097656 41.464844 102.488281 C 38.402344 109.855469 36.117188 117.757812 36.066406 125.921875 C 36.070312 129.988281 36.660156 134.078125 37.949219 137.957031 C 39.261719 141.816406 41.253906 145.5 44.03125 148.519531 C 46.792969 151.5625 50.324219 153.855469 54.167969 155.15625 C 58.011719 156.417969 62.222656 156.726562 66.0625 155.589844 Z M 82.769531 106.578125 C 84.4375 108.835938 86.640625 110.617188 88.929688 112.261719 C 89.414062 110.90625 89.863281 109.539062 90.238281 108.152344 C 90.429688 107.433594 90.625 106.707031 90.816406 105.964844 C 92.710938 98.664062 94.371094 90.328125 91.34375 83.304688 C 89.53125 80.867188 86.761719 79.265625 83.582031 80.464844 C 74.507812 83.894531 78.539062 100.855469 82.769531 106.578125 Z M 125.964844 146.382812 L 127.351562 136.960938 C 127.828125 133.835938 128.3125 130.722656 128.886719 127.628906 C 129.425781 124.523438 130.058594 121.4375 130.699219 118.34375 L 132.695312 109.027344 C 131.269531 111.898438 130.140625 114.898438 129.195312 117.953125 C 128.234375 121.003906 127.507812 124.128906 126.917969 127.273438 C 126.367188 130.425781 125.964844 133.605469 125.796875 136.800781 C 125.617188 139.992188 125.632812 143.199219 125.964844 146.382812 Z M 157.621094 141.027344 C 157.722656 142.382812 157.882812 143.867188 158.636719 145.195312 C 160.132812 147.929688 163.703125 148.902344 166.085938 147.578125 C 163.453125 148.0625 160.886719 146.574219 160.039062 144.507812 C 159.617188 143.449219 159.496094 142.238281 159.511719 140.96875 C 159.515625 139.683594 159.53125 138.375 159.621094 137.085938 C 159.734375 134.492188 160.011719 131.910156 160.375 129.328125 C 160.742188 126.746094 161.246094 124.175781 161.75 121.550781 C 160.46875 123.894531 159.519531 126.421875 158.851562 129.023438 C 158.160156 131.617188 157.785156 134.296875 157.625 136.984375 C 157.566406 138.332031 157.566406 139.667969 157.621094 141.027344 Z M 190.921875 127.777344 C 190.957031 129.921875 191.28125 132.058594 191.867188 134.136719 C 192.492188 136.195312 193.398438 138.183594 194.605469 139.984375 C 195.84375 141.757812 197.359375 143.367188 199.136719 144.59375 C 202.636719 147.070312 207.132812 148.257812 211.222656 147.34375 C 207.058594 147.402344 203.140625 145.832031 200.074219 143.347656 C 197 140.855469 194.878906 137.359375 193.785156 133.570312 C 192.640625 129.777344 192.523438 125.714844 193.183594 121.75 C 193.847656 117.773438 195.265625 113.90625 197.054688 110.167969 C 194.558594 113.480469 192.65625 117.3125 191.660156 121.4375 C 191.148438 123.496094 190.917969 125.632812 190.921875 127.777344 Z M 202.070312 116.640625 C 203.339844 116.671875 204.605469 116.589844 205.816406 116.222656 C 206.859375 115.90625 207.832031 115.390625 208.761719 114.820312 C 210.246094 113.914062 211.667969 112.832031 212.605469 111.367188 C 214.539062 108.351562 213.136719 105.46875 209.71875 107.472656 C 207.78125 108.609375 206.296875 110.625 204.917969 112.300781 C 203.820312 113.640625 202.855469 115.097656 202.070312 116.640625 Z M 215.894531 114.472656 C 217.378906 114.234375 218.769531 113.507812 219.945312 112.53125 C 221.125 111.558594 222.109375 110.328125 222.808594 108.953125 C 223.511719 107.585938 223.929688 106.066406 224.03125 104.539062 C 224.132812 103.015625 223.902344 101.460938 223.226562 100.117188 C 223.078125 101.605469 222.851562 102.972656 222.492188 104.289062 C 222.128906 105.605469 221.628906 106.851562 221.027344 108.046875 C 220.414062 109.234375 219.695312 110.371094 218.84375 111.433594 C 217.988281 112.5 217.015625 113.484375 215.894531 114.472656 Z M 113.34375 130.363281 C 110.542969 132.910156 107.398438 135.152344 104 136.808594 C 94.339844 159.523438 75.074219 177.234375 47.609375 171.59375 C 36.324219 169.277344 28.4375 157.929688 25.582031 147.328125 C 18.84375 122.300781 29.332031 94.496094 46.714844 76.34375 C 53.878906 68.867188 65.171875 62.074219 75.542969 60.871094 C 88.761719 59.34375 98.445312 67.222656 105.253906 77.550781 C 112.726562 88.890625 112.0625 104.476562 109.742188 117.460938 C 109.640625 118.015625 109.523438 118.570312 109.414062 119.121094 C 109.761719 119.078125 110.105469 119.035156 110.460938 118.972656 C 115.445312 118.089844 120.21875 115.542969 123.308594 111.558594 C 125.507812 105.636719 128.210938 100.027344 132.292969 95.035156 C 132.292969 95.035156 138.234375 93.101562 144.203125 93.710938 C 144.203125 93.710938 139.753906 108.808594 139.320312 110.433594 C 138.324219 114.15625 137.402344 117.894531 136.519531 121.644531 C 136.714844 121.351562 136.910156 121.058594 137.09375 120.773438 C 139.726562 116.679688 142.632812 112.765625 145.792969 109.066406 C 148.96875 105.347656 152.488281 101.777344 156.867188 99.597656 C 162.277344 96.902344 170.902344 96.824219 173.324219 103.382812 C 175.09375 108.179688 174.0625 113.539062 172.535156 118.417969 C 171.007812 123.296875 168.980469 128.125 168.785156 133.234375 C 168.730469 134.574219 168.898438 136.101562 169.96875 136.910156 C 171.117188 137.777344 172.777344 137.402344 174.050781 136.730469 C 175.695312 135.859375 177.085938 134.582031 178.378906 133.242188 C 180.84375 130.691406 183.019531 127.863281 184.867188 124.835938 C 185.558594 121.199219 186.652344 117.640625 187.984375 114.316406 C 190.300781 108.550781 193.457031 103.078125 197.664062 98.507812 C 204.253906 91.359375 214.617188 85.242188 224.53125 88.910156 C 228.355469 90.324219 231.667969 93.417969 232.734375 97.351562 C 234.191406 102.714844 231.339844 108.351562 227.664062 112.523438 C 221.285156 119.769531 209.683594 126.210938 199.976562 123.023438 C 198.992188 129.792969 202.101562 136.835938 209.183594 138.816406 C 220.226562 141.90625 229.566406 131.832031 233.941406 122.496094 C 242.789062 129.710938 233.519531 144.671875 228.882812 148.878906 C 222.328125 154.824219 213.03125 157.671875 204.265625 157.113281 C 194.230469 156.472656 187.378906 150.730469 184.980469 140.96875 C 184.867188 140.511719 184.773438 140.054688 184.683594 139.59375 C 184.632812 139.660156 184.589844 139.730469 184.539062 139.796875 C 181.046875 144.34375 176.910156 148.367188 172.488281 152.007812 C 169.585938 154.394531 166.480469 156.675781 162.890625 157.789062 C 156.535156 159.765625 150.910156 157.0625 148.65625 150.800781 C 147.519531 147.648438 147.4375 144.222656 147.601562 140.878906 C 148.027344 132.113281 150.125 123.351562 154.132812 115.574219 C 142.910156 126.445312 133.996094 142.066406 129.664062 156.851562 C 129.316406 158.296875 128.9375 159.734375 128.519531 161.15625 C 120.539062 161.132812 115.148438 157.527344 114.71875 149.746094 C 114.355469 143.234375 117.199219 130.765625 119.164062 124.246094 C 117.347656 126.402344 115.433594 128.46875 113.34375 130.363281 Z M 400.8125 270.300781 C 403.179688 268.457031 405.359375 266.367188 407.367188 264.132812 C 409.359375 261.882812 411.179688 259.476562 412.742188 256.910156 L 413.871094 254.964844 L 414.925781 252.980469 L 415.863281 250.9375 C 416.152344 250.246094 416.429688 249.554688 416.699219 248.859375 C 416.332031 249.511719 415.972656 250.164062 415.625 250.820312 L 414.496094 252.742188 L 413.332031 254.640625 L 412.097656 256.488281 C 410.40625 258.921875 408.597656 261.269531 406.621094 263.46875 C 404.664062 265.683594 402.542969 267.753906 400.320312 269.710938 C 398.09375 271.664062 395.722656 273.460938 393.269531 275.164062 C 395.9375 273.8125 398.449219 272.152344 400.8125 270.300781 Z M 371.71875 273.117188 C 375.191406 272.945312 378.636719 272.273438 381.949219 271.195312 C 388.578125 269.027344 394.628906 265.199219 399.59375 260.300781 C 404.5 255.34375 408.371094 249.425781 411.210938 243.09375 C 414.050781 236.757812 415.953125 230.039062 417.0625 223.222656 C 416.296875 226.589844 415.421875 229.929688 414.320312 233.191406 C 413.253906 236.464844 411.996094 239.675781 410.511719 242.769531 C 407.5625 248.964844 403.757812 254.78125 398.886719 259.59375 C 394.078125 264.449219 388.152344 268.191406 381.703125 270.472656 C 375.265625 272.75 368.1875 273.457031 361.421875 271.980469 C 364.75 272.925781 368.246094 273.257812 371.71875 273.117188 Z M 454.710938 107.484375 C 455.613281 104.964844 456.4375 102.421875 457.261719 99.878906 C 458.0625 97.328125 458.863281 94.777344 459.589844 92.203125 L 460.675781 88.339844 C 461.003906 87.039062 461.363281 85.753906 461.664062 84.441406 C 461.148438 85.679688 460.695312 86.9375 460.210938 88.1875 L 458.859375 91.964844 C 457.960938 94.484375 457.132812 97.03125 456.308594 99.574219 C 455.507812 102.128906 454.707031 104.679688 453.980469 107.253906 C 453.242188 109.828125 452.523438 112.402344 451.90625 115.011719 C 452.917969 112.523438 453.820312 110.007812 454.710938 107.484375 Z M 420.902344 186.269531 C 421.914062 185.867188 422.839844 185.292969 423.722656 184.703125 C 425.511719 183.53125 427.140625 182.128906 428.652344 180.617188 C 430.15625 179.089844 431.507812 177.417969 432.667969 175.625 C 433.828125 173.835938 434.816406 171.933594 435.550781 169.941406 C 434.980469 170.839844 434.460938 171.753906 433.851562 172.613281 C 433.285156 173.496094 432.671875 174.351562 432.039062 175.183594 C 430.753906 176.835938 429.421875 178.445312 427.941406 179.914062 C 426.484375 181.40625 424.917969 182.789062 423.273438 184.082031 C 422.457031 184.742188 421.617188 185.355469 420.703125 185.828125 C 419.804688 186.324219 418.789062 186.621094 417.722656 186.5625 C 418.757812 186.851562 419.890625 186.644531 420.902344 186.269531 Z M 449.371094 111.199219 C 448.214844 114.5 447.195312 117.847656 446.226562 121.203125 C 444.304688 127.921875 442.699219 134.71875 440.71875 141.394531 C 438.816406 148.089844 436.507812 154.671875 433.46875 160.921875 C 430.4375 167.160156 426.566406 173.046875 421.617188 177.980469 C 424.238281 175.671875 426.5625 173.027344 428.660156 170.222656 C 430.730469 167.394531 432.542969 164.382812 434.15625 161.269531 C 437.371094 155.023438 439.691406 148.375 441.675781 141.671875 C 443.585938 134.941406 445.207031 128.152344 446.96875 121.40625 C 448.730469 114.664062 450.707031 107.972656 453.363281 101.511719 C 451.839844 104.652344 450.558594 107.910156 449.371094 111.199219 Z M 446.738281 98.429688 C 445.503906 102.867188 444.359375 107.324219 443.164062 111.769531 C 442.050781 116.238281 440.890625 120.691406 439.816406 125.167969 L 438.21875 131.890625 C 437.722656 134.136719 437.195312 136.378906 436.726562 138.632812 C 437.414062 136.433594 438.039062 134.21875 438.695312 132.011719 L 440.558594 125.363281 C 441.789062 120.925781 442.941406 116.46875 444.132812 112.023438 C 445.246094 107.554688 446.40625 103.101562 447.480469 98.621094 C 448.554688 94.148438 449.617188 89.664062 450.570312 85.15625 C 449.21875 89.5625 447.96875 93.996094 446.738281 98.429688 Z M 323.867188 156.0625 C 326.269531 154.394531 328.21875 151.960938 329.007812 149.175781 C 327.492188 151.613281 325.582031 153.671875 323.296875 155.242188 C 321.023438 156.824219 318.425781 157.890625 315.605469 158.445312 C 318.492188 158.683594 321.457031 157.722656 323.867188 156.0625 Z M 314.539062 153.246094 C 316.289062 152.34375 317.878906 151.046875 318.914062 149.371094 C 317.308594 150.492188 315.757812 151.515625 314.085938 152.355469 C 312.421875 153.21875 310.679688 153.867188 308.828125 154.507812 C 310.792969 154.652344 312.773438 154.128906 314.539062 153.246094 Z M 232.722656 156.820312 C 235.003906 154.605469 236.765625 151.789062 237.476562 148.714844 C 236.023438 151.496094 234.230469 153.988281 232.027344 156.101562 C 229.839844 158.230469 227.28125 159.933594 224.449219 161.285156 C 227.546875 160.683594 230.425781 159.023438 232.722656 156.820312 Z M 176.40625 159.859375 C 177.789062 158.667969 179 157.246094 179.75 155.570312 C 178.367188 156.765625 177.109375 157.96875 175.761719 159.097656 C 174.433594 160.242188 173.039062 161.289062 171.632812 162.460938 C 173.410156 161.988281 175.007812 161.027344 176.40625 159.859375 Z M 91.957031 180.425781 C 93.820312 179.292969 95.503906 177.820312 96.683594 175.988281 C 94.929688 177.269531 93.25 178.5 91.445312 179.570312 C 89.652344 180.660156 87.777344 181.570312 85.820312 182.511719 C 87.992188 182.328125 90.082031 181.535156 91.957031 180.425781 Z M 76.839844 182.597656 C 78.367188 182.175781 79.851562 181.597656 81.28125 180.902344 C 84.140625 179.511719 86.722656 177.582031 88.980469 175.347656 C 91.222656 173.097656 93.15625 170.554688 94.765625 167.839844 C 95.570312 166.480469 96.316406 165.089844 97 163.675781 C 97.65625 162.242188 98.289062 160.808594 98.828125 159.328125 C 98.085938 160.714844 97.363281 162.101562 96.566406 163.445312 C 95.796875 164.804688 94.988281 166.140625 94.117188 167.429688 C 92.378906 170.007812 90.472656 172.464844 88.277344 174.640625 C 86.097656 176.828125 83.617188 178.714844 80.925781 180.226562 C 78.222656 181.726562 75.269531 182.796875 72.171875 183.308594 C 73.742188 183.265625 75.308594 182.992188 76.839844 182.597656 Z M 54.835938 178.359375 C 57.960938 178.460938 61.070312 178.285156 64.117188 177.78125 C 67.164062 177.265625 70.164062 176.484375 73.042969 175.382812 C 75.929688 174.304688 78.699219 172.910156 81.324219 171.28125 L 83.261719 170.003906 L 85.121094 168.617188 L 86.933594 167.148438 C 87.503906 166.621094 88.085938 166.101562 88.671875 165.585938 C 88.164062 166.175781 87.644531 166.761719 87.117188 167.339844 L 85.4375 168.992188 L 83.636719 170.511719 L 81.746094 171.925781 C 79.171875 173.738281 76.34375 175.195312 73.394531 176.320312 C 70.441406 177.421875 67.355469 178.195312 64.222656 178.539062 C 61.09375 178.894531 57.925781 178.871094 54.835938 178.359375" style="fill: rgb(34, 36, 60);"></path></g></g></svg>