<svg width="25" height="24" viewBox="0 0 25 24" fill="none" xmlns="http://www.w3.org/2000/svg">
<path d="M4.99997 24H14.6198C15.1969 24.0003 15.7672 23.869 16.2914 23.6152C16.8157 23.3613 17.2815 22.9909 17.6568 22.5295L22.7587 16.2642C22.8655 16.1332 22.9401 15.9766 22.9759 15.8082C23.0117 15.6397 23.0076 15.4646 22.9639 15.2982C22.9202 15.1318 22.8384 14.9792 22.7255 14.854C22.6126 14.7288 22.4722 14.6347 22.3167 14.58L20.3487 13.8895C19.8731 13.7267 19.3667 13.6899 18.8743 13.7823C18.3819 13.8746 17.9187 14.0933 17.5258 14.419L14.3408 17.1L13.7238 15.8C13.3933 15.0992 12.8829 14.5099 12.2506 14.0988C11.6182 13.6876 10.8891 13.4711 10.1459 13.4737H4.99997C3.89699 13.4737 3 14.4179 3 15.579V21.8947C3 23.0558 3.89699 24 4.99997 24ZM4.99997 15.579H10.1459C10.9089 15.579 11.5939 16.0242 11.9349 16.7421L12.3818 17.6842H7.99992V19.7895H14.0138C14.1677 19.7873 14.319 19.7477 14.4558 19.6737L14.4588 19.6726L14.4628 19.6705H14.4658L14.4678 19.6695H14.4718L14.4728 19.6684C14.4818 19.6716 14.4758 19.6674 14.4758 19.6674C14.4858 19.6674 14.4778 19.6663 14.4778 19.6663H14.4788L14.4808 19.6653L14.4838 19.6642L14.4858 19.6632L14.4878 19.6621L14.4908 19.6611L14.4928 19.66C14.4958 19.66 14.4938 19.6589 14.4948 19.6589L14.4978 19.6568L14.4998 19.6558L14.5018 19.6547L14.5048 19.6537L14.5068 19.6526H14.5078L14.5098 19.6516H14.5108L14.5128 19.6505L14.5148 19.6495C14.5238 19.6484 14.5178 19.6484 14.5178 19.6484L14.5198 19.6474C14.5583 19.6229 14.5951 19.5954 14.6298 19.5653L18.7757 16.0737C19.0377 15.8547 19.3987 15.7863 19.7157 15.8979L20.2727 16.0937L16.1398 21.1705C15.9497 21.3978 15.7158 21.5798 15.4538 21.7047C15.1917 21.8296 14.9075 21.8943 14.6198 21.8947H4.99997V15.579ZM16.9998 4.00001H16.9828C16.8198 4.00212 15.9768 4.04106 14.9998 4.74211C14.0488 4.06001 13.2258 4.00527 13.0318 4.00106L13.0018 4.00001H12.9978C12.1969 4.00001 11.4429 4.32948 10.8789 4.92422C10.3129 5.52106 9.99989 6.31369 9.99989 7.1579C9.99989 8.00211 10.3129 8.79474 10.8609 9.37264L14.2748 13.1474C14.3687 13.25 14.4814 13.3316 14.606 13.3874C14.7306 13.4431 14.8646 13.4718 15 13.4717C15.1354 13.4716 15.2694 13.4427 15.3939 13.3868C15.5185 13.3309 15.631 13.2491 15.7248 13.1463L19.1207 9.39053C19.6877 8.79474 19.9997 8.00211 19.9997 7.1579C19.9997 6.31369 19.6867 5.52106 19.1217 4.92527C18.8441 4.63111 18.5137 4.39786 18.1498 4.23904C17.7859 4.08021 17.3957 3.99897 17.0018 4.00001H16.9998ZM17.9998 7.1579C17.9998 7.43896 17.8958 7.70317 17.6888 7.92106L14.9998 10.8947L12.2929 7.90211C12.1039 7.70317 11.9999 7.43896 11.9999 7.1579C11.9999 6.87685 12.1039 6.61264 12.2938 6.41264C12.4747 6.21902 12.7209 6.10853 12.9788 6.10527C13.0038 6.10632 13.4808 6.13896 14.0458 6.6158C14.1268 6.68422 14.2088 6.76211 14.2928 6.84948L14.9998 7.59369L15.7068 6.84948C15.7908 6.76211 15.8728 6.68422 15.9538 6.6158C16.4828 6.16843 16.9298 6.11264 17.0058 6.10632C17.1361 6.1063 17.2652 6.13345 17.3855 6.1862C17.5058 6.23896 17.615 6.31628 17.7068 6.41369C17.8958 6.61264 17.9998 6.87685 17.9998 7.1579Z" fill="#F8F8F8"/>
</svg>
