<svg width="56" height="56" viewBox="0 0 56 56" fill="none" xmlns="http://www.w3.org/2000/svg">
<path d="M46.6665 23.3334C45.0679 20.6029 42.478 18.594 39.4357 17.7247C36.3934 16.8555 33.133 17.1929 30.3332 18.6667V7.00004H25.6665V18.6667C22.8667 17.1929 19.6064 16.8555 16.5641 17.7247C13.5218 18.594 10.9318 20.6029 9.33321 23.3334C4.66654 30.3334 16.3332 51.3334 20.9999 51.3334C25.6665 51.3334 25.6665 49 27.9999 49C30.3332 49 30.3332 51.3334 34.9999 51.3334C39.6665 51.3334 51.3332 30.3334 46.6665 23.3334ZM42.5832 31.22C41.1365 36.9834 38.2899 42.28 34.2999 46.6667C33.8332 46.6667 33.2965 46.4334 32.8999 46.0834C31.513 44.962 29.7834 44.3502 27.9999 44.3502C26.2163 44.3502 24.4868 44.962 23.0999 46.0834C22.7032 46.4334 22.1665 46.6667 21.6999 46.6667C17.6988 42.2947 14.8517 36.9935 13.4165 31.2434C12.8332 29.54 12.7165 27.6967 13.2065 25.9467C13.8707 24.7626 14.8301 23.7706 15.9913 23.0673C17.1526 22.364 18.4762 21.9734 19.8332 21.9334C21.1399 21.9567 22.4232 22.26 23.5899 22.8434L25.6665 23.8934H30.3332L32.4099 22.8434C33.5765 22.26 34.8599 21.9567 36.1665 21.9334C38.9199 22.0034 41.4399 23.52 42.7932 25.9234C43.2832 27.6734 43.1665 29.5167 42.5832 31.22ZM25.6665 11.6667C12.5532 18.83 9.58988 8.82004 9.58988 8.82004C9.58988 8.82004 15.7965 0.44337 25.6665 11.6667Z" fill="#C15606"/>
</svg>
