<svg width="56" height="56" viewBox="0 0 56 56" fill="none" xmlns="http://www.w3.org/2000/svg">
<path d="M30.3337 9.33342H25.667L23.3337 4.66675H32.667L30.3337 9.33342ZM44.3337 30.3334V51.3334H11.667V30.3334C11.667 23.8934 16.8937 18.6667 23.3337 18.6667V14.0001H21.0003V11.6667H35.0003V14.0001H32.667V18.6667C39.107 18.6667 44.3337 23.8934 44.3337 30.3334ZM39.667 30.3334C39.667 26.4834 36.517 23.3334 32.667 23.3334H23.3337C19.4837 23.3334 16.3337 26.4834 16.3337 30.3334V46.6668H39.667V30.3334ZM35.0003 37.3334H30.3337V42.0001H25.667V37.3334H21.0003V32.6667H25.667V28.0001H30.3337V32.6667H35.0003V37.3334Z" fill="#C15606"/>
</svg>
