<svg width="56" height="56" viewBox="0 0 56 56" fill="none" xmlns="http://www.w3.org/2000/svg">
<path d="M37.3336 49H18.667C18.0481 49 17.4546 48.7542 17.0171 48.3166C16.5795 47.879 16.3336 47.2855 16.3336 46.6667V28.1633L13.3003 30.6133C12.3903 31.5 10.9203 31.5 10.0103 30.6133L3.40698 24.01C3.19067 23.7941 3.01906 23.5377 2.90197 23.2555C2.78488 22.9732 2.72461 22.6706 2.72461 22.365C2.72461 22.0594 2.78488 21.7568 2.90197 21.4745C3.01906 21.1923 3.19067 20.9359 3.40698 20.72L17.127 7H21.0003C21.0003 9.56667 24.127 11.6667 28.0003 11.6667C31.8736 11.6667 35.0003 9.56667 35.0003 7H38.8736L52.5936 20.72C53.5036 21.63 53.5036 23.1 52.5936 24.01L45.9903 30.6133C45.0803 31.5 43.6103 31.5 42.7003 30.6133L39.667 28.1633V46.6667C39.667 47.2855 39.4211 47.879 38.9836 48.3166C38.546 48.7542 37.9525 49 37.3336 49ZM47.647 22.3533L37.5903 12.32C36.867 13.1367 36.0036 13.86 35.0003 14.4667C33.0403 15.6333 30.637 16.3333 28.0003 16.3333C24.0336 16.3333 20.5103 14.7467 18.4103 12.32L8.35365 22.3533L11.667 25.6667L18.667 21H21.0003V44.3333H35.0003V21H37.3336L44.3336 25.6667L47.647 22.3533Z" fill="#C15606"/>
</svg>
