<svg width="21" height="20" viewBox="0 0 21 20" fill="none" xmlns="http://www.w3.org/2000/svg">
<path fill-rule="evenodd" clip-rule="evenodd" d="M19.25 2.5C19.25 2.16848 19.1183 1.85054 18.8839 1.61612C18.6495 1.3817 18.3315 1.25 18 1.25H3C2.66848 1.25 2.35054 1.3817 2.11612 1.61612C1.8817 1.85054 1.75 2.16848 1.75 2.5V17.5C1.75 17.8315 1.8817 18.1495 2.11612 18.3839C2.35054 18.6183 2.66848 18.75 3 18.75H18C18.3315 18.75 18.6495 18.6183 18.8839 18.3839C19.1183 18.1495 19.25 17.8315 19.25 17.5V2.5ZM0.5 2.5C0.5 1.83696 0.763392 1.20107 1.23223 0.732233C1.70107 0.263392 2.33696 0 3 0L18 0C18.663 0 19.2989 0.263392 19.7678 0.732233C20.2366 1.20107 20.5 1.83696 20.5 2.5V17.5C20.5 18.163 20.2366 18.7989 19.7678 19.2678C19.2989 19.7366 18.663 20 18 20H3C2.33696 20 1.70107 19.7366 1.23223 19.2678C0.763392 18.7989 0.5 18.163 0.5 17.5V2.5ZM6.125 9.375C5.95924 9.375 5.80027 9.44085 5.68306 9.55806C5.56585 9.67527 5.5 9.83424 5.5 10C5.5 10.1658 5.56585 10.3247 5.68306 10.4419C5.80027 10.5592 5.95924 10.625 6.125 10.625H13.3663L10.6825 13.3075C10.6244 13.3656 10.5783 13.4346 10.5468 13.5105C10.5154 13.5864 10.4992 13.6678 10.4992 13.75C10.4992 13.8322 10.5154 13.9136 10.5468 13.9895C10.5783 14.0654 10.6244 14.1344 10.6825 14.1925C10.7406 14.2506 10.8096 14.2967 10.8855 14.3282C10.9614 14.3596 11.0428 14.3758 11.125 14.3758C11.2072 14.3758 11.2886 14.3596 11.3645 14.3282C11.4404 14.2967 11.5094 14.2506 11.5675 14.1925L15.3175 10.4425C15.3757 10.3844 15.4219 10.3155 15.4534 10.2395C15.4849 10.1636 15.5011 10.0822 15.5011 10C15.5011 9.91779 15.4849 9.83639 15.4534 9.76046C15.4219 9.68453 15.3757 9.61556 15.3175 9.5575L11.5675 5.8075C11.5094 5.74939 11.4404 5.70329 11.3645 5.67185C11.2886 5.6404 11.2072 5.62421 11.125 5.62421C11.0428 5.62421 10.9614 5.6404 10.8855 5.67185C10.8096 5.70329 10.7406 5.74939 10.6825 5.8075C10.6244 5.86561 10.5783 5.9346 10.5468 6.01052C10.5154 6.08644 10.4992 6.16782 10.4992 6.25C10.4992 6.33218 10.5154 6.41356 10.5468 6.48948C10.5783 6.5654 10.6244 6.63439 10.6825 6.6925L13.3663 9.375H6.125Z" fill="#221002"/>
</svg>
